<?xml version="1.0" encoding="utf-8"?>
<!-- Generator: Adobe Illustrator 25.4.1, SVG Export Plug-In . SVG Version: 6.00 Build 0)  -->
<svg version="1.1" id="圖層_1" xmlns="http://www.w3.org/2000/svg" xmlns:xlink="http://www.w3.org/1999/xlink" x="0px" y="0px"
	 viewBox="0 0 200 200" style="enable-background:new 0 0 200 200;" xml:space="preserve">
<style type="text/css">
	.st0{fill:#E3C68A;}
	.st1{fill:#896D32;}
	.st2{fill:#896D33;}
	.st3{fill:#579A9C;}
	.st4{fill:#589C9E;}
	.st5{fill:#685021;}
	.st6{fill:#C6A86B;}
	.st7{fill:#5A4B2A;}
	.st8{fill:#6C5426;}
	.st9{fill:#6D4D1B;}
	.st10{fill:#45404D;}
	.st11{fill:#8F7742;}
	.st12{fill:#FBFBF9;}
	.st13{fill:#0F0F0F;}
</style>
<path class="st0" d="M102.74,50.56c2.27,1.24,4.56,2.46,6.82,3.72c1.66,0.93,3.29,1.92,4.93,2.9c0.36,0.22,0.72,0.28,1.12,0.24
	c0.27,0.95,1.45,0.75,1.87,1.49c-0.17,0.81,0.16,1.42,0.7,1.99c1.78,1.88,3.83,3.51,4.98,5.95c0.29,0.62,0.23,1.49,1.03,1.85
	c0.47,0.9,0.33,1.98,0.86,2.86c-0.01,0.56,0,1.1,0.12,1.67c0.28,1.39,0.5,2.81,0.33,4.25c-0.33,2.71-0.64,5.41-0.4,8.15
	c-0.51,0.39-0.31,0.96-0.32,1.45c-0.01,2.2,0.03,4.4-0.47,6.57c-0.2,0.89,0.45,2.03-0.86,2.53c-0.11-0.84-0.9-0.96-1.44-1.33
	c-1.19-0.82-2.47-1.49-3.55-2.46c2.26-1.51,3.2-3.72,2.53-6.44c-0.25-1.01,0.19-2.12-0.54-3.03c-1.4-1.76-3.16-2.69-5.45-2.43
	c-2.09,0.24-3.5,1.36-4.33,3.29c-0.72,1.67-0.71,3.36-0.3,5.09c-3.09-1.88-6.32-2.65-9.86-1.39c-0.24,0.09-0.51,0.08-0.77,0.12
	c-0.07-0.95-0.1-1.91-0.23-2.86c-0.46-3.33-3.41-5.07-5.74-4.72c-6.4,0.97-6.47,8.18-3.95,11.25c0.47,0.58,0.95,0.89,1.8,0.57
	c2.69-1,5.32-2.14,7.88-3.43c0.45-0.15,0.93-0.24,1.34-0.45c1.62-0.85,3.2-0.99,4.77,0.12c0.33,0.23,0.7,0.29,1.11,0.22
	c1.08-0.2,2.03,0.02,2.77,0.91c0.37,0.44,0.79,0.82,1.44,0.7c0.19,0.22,0.38,0.44,0.57,0.67c-0.49,0.77,0.34,0.94,0.64,1.27
	c2.65,2.82,5.49,5.48,6.94,9.2c0.1,0.27,0.37,0.48,0.58,0.69c2.01,2.11,4.03,4.22,6.05,6.33c0.3,0.32,0.66,0.61,0.6,1.1
	c-0.16,1.45,0.28,2.85,0.26,4.29c-0.03,3.23-0.45,6.41-1.38,9.5c-0.39,1.29-0.78,2.62-2.13,3.47c-1.39,0.87-2.93,1.25-4.41,1.86
	c-2.62,1.07-4.8,2.82-6.49,5.09c-1.03,1.39-2.09,2.79-2.62,4.48c-2.44,0.1-4.89,0.29-6.97-1.39c-0.16-0.13-0.41-0.19-0.62-0.2
	c-3.1-0.1-5.37-2.14-7.9-3.5c-2.85-1.54-5.67-3.17-8.26-5.15c-0.31-0.23-0.41-0.7-0.87-0.75c-0.51-0.75-1.15-1.35-1.91-1.83
	c-0.05-2.18-0.03-4.34-0.19-6.53c-0.3-4.2-0.76-8.39-1.16-12.58c-0.15-1.52-0.31-3.19-1.58-4.31c-0.59-0.52-0.38-0.78-0.04-1.27
	c1.41-2.01,3.41-3.27,5.47-4.49c0.79-0.46,1.61-0.93,1.71-2c0.04-0.04,0.07-0.07,0.11-0.11c-0.04,0.03-0.08,0.07-0.11,0.1
	c-0.28,0.1-0.57,0.19-0.85,0.3c-2.76,1.11-4.88,3.09-6.89,5.2c-0.74,0.78-1.58,1.34-2.71,1.34c-0.2-1.59-0.48-3.18-1.1-4.66
	c-1.24-2.93-1.45-6.05-1.88-9.14c-0.21-1.53-0.2-3.1-0.71-4.58c-0.2-2.42-0.01-4.79,0.67-7.14c0.43-1.49,0.84-3.03,0.74-4.59
	c-0.09-1.49,0.32-2.62,1.51-3.5c0.42-0.31,0.83-0.67,0.68-1.29c1.24-2.98,2.83-5.72,5.31-7.85c0.53-0.37,1.09-0.71,1.37-1.34
	c1.65-0.14,2.86-1.25,4.14-2.07c3.78-2.41,8.12-2.89,12.31-3.94c0.03,0.39-0.02,0.8,0.09,1.17c0.92,3.03,1.38,6.18,2.44,9.18
	c0.48,1.38,0.93,2.77,1.39,4.15c0.21-1.16,0.67-2.12,1.19-3.11c0.62,6.46,1.24,12.93,1.86,19.39c0.13,0,0.26,0,0.39,0
	c-0.3-1.99,0.62-3.82,0.53-5.8c-0.16-3.38-0.64-6.73-1.03-10.08c-0.59-5.02-1.46-9.92-3.94-14.41
	C102.71,50.94,102.75,50.74,102.74,50.56z M100.85,121.91c1.02,0.37,1.08,1.35,1.36,2.18c0.12,0.36,0.26,0.64,0.66,0.7
	c0.44,0.07,0.74-0.13,0.94-0.53c0.19-0.36,0.29-0.73,0.24-1.13c-0.36-2.61-2.21-5.6-5.43-5.76c0.07,0.64,0.62,1.18,0.43,1.85
	c-0.62-0.22-1.24-0.21-2.18-0.08c2.01,1.81,2.55,4.18,3.51,6.43C101.06,124.32,100.82,123.1,100.85,121.91z M111.22,125.51
	c2.98-4.15,3.15-12.47,0.3-16.43C112.32,114.67,111.89,120.09,111.22,125.51z M119.23,125.05c0.74-0.52,1.01-1.23,1.49-1.79
	c0.5-0.59,0.97-1.21,1.41-1.84c0.2-0.29,0.84-0.51,0.49-0.89c-0.29-0.32-0.86-0.22-1.33,0.02
	C120.01,121.23,119.02,123.28,119.23,125.05z"/>
<path class="st1" d="M117.48,58.92c-0.43-0.74-1.61-0.54-1.87-1.49c1.09-1.39,2.21-2.77,3.28-4.17c1.2-1.57,1.71-3.34,1.75-5.33
	c0.06-3.19,2.18-7.23,6.34-7.77c1.67-0.22,3.24,0.32,4.62,1.31c-0.69,1.5-0.04,3.01,0.03,4.5c0.09,1.87,0.62,3.67,1.41,5.38
	c0.11,0.23,0.29,0.58,0.54,0.23c0.78-1.08,2.4-1.62,2.21-3.34c1.08-1.8,2.83-2.93,4.3-4.34c0.54-0.52,0.51-1.09,0.61-1.79
	c0.42-2.91-1.34-5.21-1.92-7.82c-0.6-2.72,1.57-5.56,4.78-5.24c1.48,0.14,3,0.31,4.38,1.01c-0.44,0.33-0.27,0.73-0.2,1.17
	c0.31,1.93,1.61,3.24,2.82,4.58c2.23,2.47,5.23,3.09,8.36,3.21c0.7,0.03,1.38,0.54,2.23,0.11c-0.27-0.2-0.49-0.31-0.67-0.48
	c-1.01-0.97-2.47-1.5-2.93-3c0.64,0.34,0.89-0.21,1.18-0.55c0.74-0.87,1.28-1.91,2.23-2.61c1.02,0.47,2.03,0.97,3.07,1.39
	c1.25,0.51,3.78,0.08,4.31-1.04c0.53-1.1,1.17-2.43,0.59-3.75c-0.62-1.43-1.03-2.97-1.98-4.25c-0.39-0.52-0.52-1.07-0.5-1.7
	c0.15-3.44-0.08-6.87,0.2-10.32c0.24-2.9,0.39-5.8,1.11-8.63c1.07-0.17,1.64-1.1,2.48-1.61c2.81-1.74,5.49-0.93,8.01,0.58
	c4.75,2.86,8.62,6.59,10.91,11.75c1.4,3.16,2.1,6.46,2.44,9.9c0.35,3.54,0.23,7.03-0.55,10.48c-0.36,1.59-0.7,3.21-1.7,4.57
	c-1.62,1.23-3.21,2.45-4.57,4.03c-2.56,2.97-5.78,5.13-9.32,6.8c-5.48,2.58-11,5.05-16.57,7.44c-5.4,2.32-10.9,4.36-16.38,6.48
	c-2.15,0.83-4.52,1.11-6.5,2.31c-1.45,0.88-3.34,1.19-4.18,2.95c-1.05,0.45-2.14,0.78-3.27,0.96c-1.15,0.39-2.31,0.77-3.55,0.77
	c-0.54-0.88-0.4-1.96-0.86-2.86c-0.31-2.1-0.26-4.33-1.91-5.98C120.83,61.27,119.67,59.43,117.48,58.92z"/>
<path class="st2" d="M82.04,57.94c-2.48,2.14-4.08,4.87-5.31,7.85c-0.62,0.2-1.25,0.23-1.89,0.28c-1.55,0.1-3.06-0.23-4.6-0.28
	c-1.95-1.13-4.14-1.63-6.25-2.31c-3.57-1.16-7.16-2.31-10.72-3.51c-0.38-0.13-0.9,0.01-1.17-0.44c-0.09-0.35,0.52-0.84-0.03-1.04
	c-1.74-0.65-2.42-2.52-3.88-3.39c-2.46-1.46-5-2.81-7.61-3.99c-5.76-2.61-11.26-5.51-15.29-10.64c-3.02-3.84-4.84-8.11-5.46-12.92
	c-0.31-2.43-0.72-4.86-1.95-6.99c-0.86-1.5-1.28-3.76-3.88-3.31c0.38-3.49,1.93-6.32,4.69-8.51c3.76-2.99,8.1-3.59,12.57-2.6
	c5.05,1.11,9.59,5.43,9.5,10.64c-0.03,2.05-0.24,4.1-0.23,6.16c0,0.7-0.44,1.21-0.72,1.79c-0.63,1.33-0.84,2.65,0.02,3.96
	c0.34,0.51,0.19,1.09,0.33,1.64c0.52,1.92,1.54,3.58,2.54,5.26c-0.09,0.14-0.27,0.28-0.27,0.41c0.05,1.26,1.56,3.16,2.77,3.5
	c1.83,0.53,3.47-0.36,3.16-1.88c-0.39-1.88,0.04-3.9-1-5.66c1.53-2.93,3.93-4.37,7.23-3.93c2.68,0.35,4.37,2.02,5.41,4.51
	c0.63,1.52,0.67,3.1,0.91,4.66c-0.8,0.83-0.75,1.95-1.01,2.96c-0.88,3.45,1.27,7.4,4.6,8.57c1.42,0.49,2.3,0.02,3.19-1.21
	c0.9-1.25,0.4-2.5,0.4-3.76c1.01-2.01,2.54-3.48,4.6-4.35c1.77-0.76,3.84,0.05,4.74,1.78c1.06,2.06,1.36,4.36,2,6.55
	c0.22,0.75,0.38,1.5,0.57,2.26c-0.48,0.11-1.08-0.07-1.38,0.52c-0.77,1.57-0.75,3.14-0.05,4.75C79.26,56.82,80.23,57.91,82.04,57.94
	z"/>
<path class="st3" d="M83.06,125.04c0.76,0.48,1.41,1.09,1.91,1.83c-0.7,1.76-1.4,3.52-2.11,5.28c-1.17-1.47-2.69-2.5-4.22-3.55
	c-0.82-0.57-1.81-0.61-2.64-1.08c-0.19-0.11-0.5-0.01-0.49,0.26c0.03,0.98-0.37,2.03,0.27,2.92c1.56,2.17,3.65,3.56,6.29,4.09
	c-0.08,0.87-0.41,1.65-0.76,2.44c-1.82-1.09-3.64-2.18-5.46-3.25c-1.07-0.63-2.29-0.81-3.61-1.33c0.53,1.96,0.75,3.66,2.31,4.92
	c1.67,1.36,3.43,2.48,5.4,3.32c-0.3,1.3-0.81,2.5-1.47,3.65c-2.83-1.69-4.95-4.55-8.53-5.25c0.02,1.7,0.36,3.21,1.61,4.38
	c1.27,1.19,2.68,2.19,4.19,3.05c0.54,0.31,1.12,0.46,1.75,0.42c-0.6,1.82-1.3,3.59-2.24,5.27c-2.04-0.97-4.08-1.96-6.13-2.92
	c-0.59-0.28-1.2-0.5-1.87-0.52c-1.29-0.03-1.71,0.62-1.11,1.78c0.12,0.22,0.31,0.43,0.5,0.6c2.23,1.9,4.75,3.16,7.73,3.37
	c-0.33,1.4-0.89,2.7-1.59,3.95c-1.09-0.54-2.14-1.16-3.27-1.59c-2.39-0.91-4.78-1.91-7.45-1.61c-0.66,0.08-1.09,0.17-0.56,0.91
	c0.73,1.03,1.33,2.2,2.42,2.88c2.34,1.45,4.83,2.56,7.62,2.87c-0.4,1.07-0.59,2.22-1.3,3.16c-0.45,0-0.84-0.17-1.24-0.34
	c-2.07-0.89-4.16-1.74-6.23-2.64c-0.91-0.39-1.86-0.23-2.37,0.4c-0.54,0.67-0.05,1.57,0.44,2.27c0.1,0.14,0.25,0.25,0.36,0.37
	c2.09,2.24,4.86,3.27,7.61,4.33c-0.29,0.62-0.26,1.37-0.8,1.88c-2.47-0.2-4.81-1.08-7.25-1.46c-1.49-0.23-2.97-0.46-4.46,0.09
	c-0.49,0.18-0.72,0.42-0.47,0.82c0.45,0.72,0.76,1.56,1.59,2.01c2.84,1.51,5.92,2.16,9.05,2.68c0.01,0.17,0.02,0.35,0.02,0.52
	c-0.52,1.63-1.64,2.63-3.24,3.24c-1.7,0.65-3.38,1.39-4.95,2.33c-0.75,0.45-1.26,0.25-1.76-0.45c-1.34-1.87-2.61-3.87-4.67-4.99
	c-1.54-0.84-1.95-1.95-1.57-3.52c0.58,0.12,1.02,0.51,1.41,0.89c0.86,0.85,1.91,1.33,3,1.78c0.55,0.23,0.78,0.19,0.8-0.48
	c0.02-0.51,0.13-1.03,0.26-1.53c0.12-0.46,0.1-0.77-0.35-1.09c-1.6-1.14-2.92-2.58-4.19-4.07c0.47-1.48,0.93-2.95,1.4-4.43
	c1.2,1.36,2.33,2.81,4.02,3.6c0.45,0.21,1.02,0.8,1.45,0.01c0.36-0.66,0.94-1.4,0.25-2.15c-1.47-1.59-3-3.12-4.51-4.67
	c0.34-1.83,1.06-3.53,1.89-5.18c0.62,0.42,0.72,1.17,1.08,1.75c0.72,1.14,1.45,2.26,2.64,2.99c0.43,0.27,0.86,0.31,0.88-0.19
	c0.03-1.3,0.81-2.63-0.11-3.9c-1.15-1.59-1.7-3.5-2.7-5.18c0.11-0.74,0.36-1.43,0.8-2.04c0.97,1.28,1.7,2.74,2.93,3.83
	c0.67,0.59,1.02,0.56,1.44-0.31c0.73-1.53,1.21-2.96-0.28-4.31c-0.15-0.14-0.18-0.4-0.32-0.57c-0.8-0.96-0.95-2.35-2.1-3.07
	c0.42-0.95,0.84-1.91,1.25-2.86c0.96,1.55,1.93,3.09,3.58,4.03c0.22,0.12,0.36,0.42,0.67,0.31c0.58-0.2,1.41-2.87,1-3.38
	c-1.1-1.35-1.96-2.86-2.91-4.31c-0.18-0.28-0.32-0.65-0.75-0.64c0.68-1.48,1.15-3.06,2.06-4.43c0.84,1.7,1.64,3.45,3.61,4.18
	c0.39,0.15,0.8,0.49,1.18,0.03c0.31-0.37,0.58-0.8,0.34-1.31c-1.07-2.29-2.16-4.58-3.24-6.86c0.09-0.87,0.77-1.42,1.13-2.15
	c0.77,1.54,1.72,2.95,3.17,3.91c0.4,0.26,1.02,0.98,1.45,0.34c0.48-0.72,1.45-1.55,0.73-2.56c-1.12-1.57-2.16-3.16-2.86-4.96
	c-0.06-0.16-0.33-0.25-0.5-0.37c0.49-0.71,0.97-1.41,1.46-2.12c0.55,1.42,1.59,2.48,2.68,3.5c1.22,1.15,1.27,1.14,2.36-0.05
	c0.27-0.29,0.52-0.6,0.83-0.84c0.59-0.46,0.53-0.82,0.04-1.38c-1.22-1.41-2.47-2.8-3.47-4.38c1.6-2.58,2.97-5.31,5.03-7.58
	c0.09,0.19,0.23,0.37,0.27,0.57c0.7,3.3,1.39,6.59,2.07,9.89C81.52,122.55,81.59,124.11,83.06,125.04z"/>
<path class="st4" d="M144.61,152.78c0.68,0.96,0.98,2.09,1.47,3.14c-1.43,0.85-2.4,2.23-3.73,3.2c-0.9,0.66-1.73,1.42-2.72,2.24
	c2.96,0.52,3.53,0.39,5.49-0.89c0.82-0.53,1.42-1.27,2.13-1.91c1.01,1.86,1.71,3.86,2.46,5.83c-1.5,0.85-2.82,2.01-4.44,2.7
	c-0.47,0.2-1.41,0.37-1.19,1.12c0.18,0.6,0.99,0.78,1.63,0.94c0.12,0.03,0.26,0,0.39,0.02c1.88,0.27,3.38-0.54,4.78-1.65
	c0.89,1.26,0.97,2.86,1.7,4.19c0.27,2.67-0.79,5.21-0.75,7.86c0.01,0.51-0.3,0.51-0.71,0.39c-0.99-0.31-1.99-0.59-2.99-0.87
	c-3.04-0.87-5.86-2.39-9.01-2.91c-0.78-0.13-1.12-0.76-1.2-1.51c0.25,0.04,0.52,0.06,0.76,0.13c2.01,0.56,3.93,0.57,5.71-0.84
	c-1.56-1.29-3.44-1.72-5.29-2.08c-0.87-0.17-1.57-0.96-2.54-0.65c-0.43-1.14-1.04-2.21-1.28-3.42c1.5,0.25,3.01,0.46,4.46-0.15
	c0.38-0.16,1.1-0.19,0.91-0.85c-0.15-0.53-0.29-1.29-1.07-1.3c-1.95-0.04-3.83-0.55-5.75-0.82c-0.57-1.3-1.14-2.6-1.71-3.9
	c1.69-0.07,3.41,0.2,5.04-0.46c0.61-0.24,1.12-0.57,0.96-1.34c-0.15-0.7-0.48-1.13-1.33-1.15c-2-0.03-3.99-0.16-5.99-0.24
	c-0.64-0.87-1.04-1.85-1.31-2.89c2.04,0.08,4.01-0.04,5.41-1.86c0.23-0.3,0.69-0.55,0.56-0.97c-0.16-0.48-0.68-0.28-1.04-0.27
	c-1.25,0.03-2.49,0.32-3.76,0.26c-0.81-0.04-1.65-0.2-2.45,0.14c-0.67-1.54-1.43-3.05-1.81-4.7c0.56,0.01,1.11,0.05,1.67,0.18
	c1.86,0.43,3.39-0.16,4.61-1.68c-0.74-0.45-1.48-0.92-2.35-1.05c-1.74-0.27-3.48-0.51-5.23-0.76c-0.41-0.87-0.93-1.7-1-2.7
	c1.54,0.09,3.03-0.14,4.4-0.83c0.69-0.35,1.7-1.06,1.56-1.54c-0.21-0.73-1.3-0.77-2.13-0.78c-1.6-0.01-3.18,0.42-4.79,0.28
	c-0.71-1.66-1.12-3.41-1.34-5.2c0.99-1.03,2.12-1.96,2.95-3.1c1.68-2.3,3.57-4.48,4.54-7.24c0.2-0.57,0.07-1.22,0.45-1.74
	c2.62,1.41,3.99,3.81,5.05,6.45c-1.27,2.42-3.93,3.84-4.95,6.51c1.62,0.4,2.83-0.11,3.93-0.97c0.85-0.67,1.61-1.45,2.26-2.32
	c0.64,1.32,1,2.74,1.37,4.16c-1.7,1.87-4.31,2.6-5.83,4.68c2.49,0.71,2.95,0.72,4.89-0.21c0.73-0.35,1.39-0.86,2.09-1.3
	c0.6,1.34,1.12,2.71,1.5,4.13c-2.53,2.34-4.94,4.8-7.18,7.41c-0.18,0.05-0.36,0.1-0.54,0.15c0.02,0.03,0.04,0.08,0.08,0.09
	c0.21,0.06,0.39,0.02,0.51-0.19c1.66,0.15,3.26-0.13,4.58-1.14c1.34-1.02,2.55-2.23,3.81-3.35c0.69,1.48,1.37,2.96,2.06,4.44
	c-0.71,0.82-1.58,1.26-2.66,1.47c-1.01,0.2-1.97,0.65-2.94,1.02c-0.27,0.1-0.64,0.2-0.66,0.56c-0.03,0.41,0.32,0.57,0.64,0.73
	C140.19,154.71,142.45,154.23,144.61,152.78z"/>
<path class="st5" d="M14.02,17.24c2.6-0.45,3.01,1.81,3.88,3.31c1.23,2.13,1.64,4.57,1.95,6.99c0.62,4.82,2.44,9.09,5.46,12.92
	c4.03,5.13,9.53,8.02,15.29,10.64c2.61,1.18,5.15,2.53,7.61,3.99c1.46,0.87,2.14,2.73,3.88,3.39c0.55,0.21-0.06,0.69,0.03,1.04
	c-3.4-0.84-6.67-2.1-9.95-3.27c-5.74-2.06-11.35-4.44-17.16-6.31c-3.61-1.16-7-2.81-10.18-4.88C14.1,44.59,13.55,44,13.1,43.3
	c-1.85-2.82-2.58-5.99-2.87-9.29c-0.16-1.8-0.39-3.58-0.06-5.43c0.65-3.64,1.13-7.3,3.37-10.41C13.73,17.89,13.86,17.55,14.02,17.24
	z"/>
<path class="st2" d="M137.91,174.66c0.09,0.75,0.42,1.38,1.2,1.51c3.15,0.52,5.98,2.04,9.01,2.91c1,0.28,2,0.56,2.99,0.87
	c0.41,0.13,0.72,0.13,0.71-0.39c-0.04-2.65,1.02-5.19,0.75-7.86c3.23,1.12,5.45,3.53,7.41,6.12c2.27,2.99,3.32,6.62,4.6,10.1
	c0.07,0.19,0.11,0.44,0.05,0.62c-0.39,1.18-0.8,2.36-1.21,3.53c-2.53-3.58-4.99-7.22-8.85-9.61c-0.14,0.23-0.35,0.54-0.52,0.88
	c-1.12,2.33-1.48,4.69-0.14,7.07c-0.52,1.35-0.85,2.74-0.87,4.2c-0.2-0.06-0.52-0.06-0.58-0.19c-1.04-2.05-2.99-2.86-4.98-3.46
	c-2.74-0.84-5.29-2.03-7.46-3.85c-1.54-1.3-3.14-2.42-4.94-3.3c-0.55-0.27-1.06-0.41-1.5,0.17c-0.35-1.64,0.33-3.09,0.78-4.59
	c0.63-2.13,1.62-4.05,2.98-5.78C137.54,173.95,137.72,174.31,137.91,174.66z"/>
<path class="st2" d="M50.34,172.8c-0.38,1.58,0.02,2.68,1.57,3.52c2.06,1.13,3.33,3.13,4.67,4.99c0.5,0.69,1.01,0.89,1.76,0.45
	c1.57-0.94,3.25-1.68,4.95-2.33c1.6-0.61,2.71-1.6,3.24-3.24c1.07,1.57,1.44,3.37,1.59,5.22c0.04,0.55-0.01,1.12,0.21,1.65
	c-1.52,0.15-2.07,1.47-2.58,2.5c-2.1,4.23-5.03,7.68-8.95,10.31c-0.54,0.36-1.16,0.81-1.27,1.59c-1.89-1.69-2.26-3.89-2.12-6.27
	c0.79-0.02,0.8-0.7,0.97-1.2c0.34-1.03-0.25-1.94-0.77-2.65c-0.4-0.56-1.37-0.14-2.02,0.08c-1.5,0.52-2.46,1.77-3.38,2.97
	c-0.64,0.83-1.48,1.65-1.34,2.87c-3.88-2.86-4.42-6.75-3.07-10.98c1.23-3.88,3.21-7.39,6.47-10.01
	C50.3,172.45,50.32,172.62,50.34,172.8z"/>
<path class="st6" d="M129.75,121.18c-0.38,0.52-0.25,1.17-0.45,1.74c-0.97,2.76-2.86,4.94-4.54,7.24c-0.84,1.14-1.96,2.08-2.95,3.1
	c-0.77,0.07-1.06,0.85-1.7,1.14c-3.15,1.45-6.41,2.59-9.74,3.51c-0.24,0.07-0.52-0.02-0.78-0.04c0.53-1.69,1.59-3.1,2.62-4.48
	c1.68-2.27,3.87-4.02,6.49-5.09c1.48-0.6,3.01-0.99,4.41-1.86c1.35-0.84,1.74-2.18,2.13-3.47c0.93-3.08,1.35-6.27,1.38-9.5
	c0.01-1.43-0.42-2.84-0.26-4.29c0.05-0.5-0.3-0.79-0.6-1.1c-2.02-2.11-4.03-4.22-6.05-6.33c-0.21-0.22-0.48-0.43-0.58-0.69
	c-1.45-3.73-4.29-6.39-6.94-9.2c-0.3-0.32-1.13-0.5-0.64-1.26c0.71,0.2,1.44,0.1,2.17,0.22c1.69,0.28,3.11,1.27,4.77,1.6
	c1.08,0.97,2.37,1.64,3.55,2.46c0.54,0.37,1.33,0.49,1.44,1.33c0.01,0.09-0.01,0.2,0.03,0.25c3.14,3.93,3.38,9.12,5.84,13.39
	c1.27,2.21,0.86,5.09,0.6,7.7C129.82,118.75,129.67,119.96,129.75,121.18z"/>
<path class="st7" d="M70.24,65.79c1.53,0.05,3.05,0.38,4.6,0.28c0.64-0.04,1.28-0.08,1.89-0.28c0.15,0.63-0.26,0.98-0.68,1.29
	c-1.19,0.88-1.61,2.02-1.51,3.5c0.1,1.56-0.31,3.1-0.74,4.59c-0.68,2.35-0.87,4.72-0.67,7.14c-0.94,0.41-1.63,1.25-2.64,1.55
	c-0.06-0.03-0.12-0.07-0.17-0.1c-0.01,0.07-0.02,0.13-0.03,0.2c0,0-0.01,0-0.01,0c-1.63,0.16-3.28,0.04-4.86,0.6
	c-1.72,0.61-3.49,1.59-5.21,1.54c-1.85-0.05-2.52,0.31-2.43,2.08c-1-0.08-1.82-0.49-2.5-1.22c-1-1.07-0.95-2.47,0.15-3.45
	c0.22-0.2,0.54-0.28,0.63-0.61c0.97-3.4,3.47-5.63,5.89-7.99C64.89,72.05,68.05,69.35,70.24,65.79z"/>
<path class="st7" d="M125.06,71.57c1.24,0.01,2.4-0.37,3.55-0.77c1.44,1.71,3.29,2.97,4.96,4.42c2.45,2.14,4.81,4.37,6.85,6.91
	c0.93,1.16,2.17,1.84,3.46,2.48c0.89,0.44,1.79,0.88,2.68,1.34c0.29,0.15,0.81,0.17,0.75,0.59c-0.06,0.44-0.57,0.45-0.94,0.54
	c-1.28-1.05-2.86-0.66-4.25-0.64c-2.93,0.05-5.73,0.81-8.15,2.62c-2.44,0.18-4.49-0.95-6.55-2c-0.8-0.41-1.54-0.95-2.31-1.43
	c-0.24-2.73,0.07-5.44,0.4-8.15c0.18-1.44-0.05-2.86-0.33-4.25C125.06,72.67,125.05,72.13,125.06,71.57z"/>
<path class="st5" d="M167.8,4.17c-0.73,2.83-0.87,5.73-1.11,8.63c-0.28,3.45-0.06,6.89-0.2,10.32c-0.03,0.64,0.11,1.18,0.5,1.7
	c0.95,1.28,1.36,2.82,1.98,4.25c0.57,1.32-0.06,2.65-0.59,3.75c-0.54,1.12-3.06,1.54-4.31,1.04c-1.04-0.42-2.05-0.92-3.07-1.39
	c0.31-0.99,1.2-1.55,1.77-2.35c0.48-0.67,0.75-1.2,0.56-2.11c-0.79-3.81-1.6-7.64-1.28-11.56c0.25-3.13,0.4-6.33,2.18-9.08
	C165.1,6,166.1,4.67,167.8,4.17z"/>
<path class="st8" d="M131.87,69.84c0.84-1.76,2.73-2.07,4.18-2.95c1.98-1.2,4.34-1.48,6.5-2.31c5.48-2.12,10.98-4.16,16.38-6.48
	c5.56-2.39,11.09-4.85,16.57-7.44c3.54-1.67,6.76-3.83,9.32-6.8c1.36-1.57,2.95-2.79,4.57-4.03c-1.84,4.11-4.58,7.51-8.57,9.64
	c-2.38,1.27-4.62,2.75-6.97,4.06c-4.15,2.31-8.47,4.26-12.82,6.12c-7.22,3.08-14.62,5.69-22.09,8.09
	C136.6,68.5,134.23,69.15,131.87,69.84z"/>
<path class="st6" d="M83.06,125.04c-1.46-0.93-1.54-2.49-1.84-3.97c-0.67-3.3-1.37-6.6-2.07-9.89c-0.04-0.2-0.18-0.38-0.27-0.57
	c-0.19-2.04-0.89-3.93-1.8-5.74c-0.25-0.49-0.49-0.87-0.18-1.42c0.52-0.92-0.45-1.82-0.09-2.76c1.13,0.01,1.97-0.56,2.71-1.34
	c2.01-2.11,4.12-4.09,6.89-5.2c0.28-0.11,0.57-0.2,0.85-0.3l0.01,0.01c-0.1,1.07-0.92,1.53-1.71,2c-2.06,1.22-4.06,2.48-5.47,4.49
	c-0.34,0.49-0.55,0.75,0.04,1.27c1.27,1.12,1.43,2.79,1.58,4.31c0.41,4.19,0.87,8.37,1.16,12.58
	C83.02,120.7,83.01,122.87,83.06,125.04z"/>
<path class="st9" d="M133.59,183.97c0.44-0.58,0.94-0.44,1.5-0.17c1.8,0.88,3.4,2.01,4.94,3.3c2.17,1.83,4.72,3.01,7.46,3.85
	c1.98,0.61,3.93,1.42,4.98,3.46c0.07,0.13,0.38,0.13,0.58,0.19c0.47,1.58,0.48,1.51-1.13,1.25c-2.96-0.47-5.87-1.27-8.87-1.56
	c-1.1-0.11-1.85-1.06-2.64-1.76c-1.08-0.94-1.81-2.2-2.71-3.29C136.27,187.53,134.94,185.75,133.59,183.97z"/>
<path class="st6" d="M102.74,50.56c0.01,0.17-0.04,0.38,0.04,0.52c2.47,4.49,3.35,9.39,3.94,14.41c0.39,3.36,0.87,6.7,1.03,10.08
	c0.09,1.98-0.83,3.81-0.53,5.8c-0.13,0-0.26,0-0.39,0c-0.62-6.46-1.24-12.93-1.86-19.39c-0.52,0.99-0.98,1.95-1.19,3.11
	c-0.46-1.38-0.9-2.78-1.39-4.15c-1.05-3-1.52-6.15-2.44-9.18c-0.11-0.36-0.06-0.78-0.09-1.17C100.82,50.08,101.78,50.1,102.74,50.56
	z"/>
<path class="st9" d="M55.52,197.47c0.11-0.78,0.73-1.22,1.27-1.59c3.92-2.64,6.85-6.08,8.95-10.31c0.51-1.03,1.07-2.36,2.58-2.5
	c0.21,2.65-0.49,5.13-1.44,7.55c-0.43,1.1-1.19,1.91-2.27,2.57c-2.28,1.4-4.46,2.98-6.42,4.82
	C57.07,199.05,56.36,197.91,55.52,197.47z"/>
<path class="st5" d="M157.56,35.63c0.46,1.5,1.92,2.03,2.93,3c0.17,0.17,0.39,0.29,0.67,0.48c-0.86,0.43-1.53-0.08-2.23-0.11
	c-3.14-0.12-6.14-0.74-8.36-3.21c-1.21-1.34-2.51-2.65-2.82-4.58c-0.07-0.44-0.24-0.84,0.2-1.17c2.33,0.52,4.29,1.76,6.14,3.22
	c0.95,0.75,1.97,1.41,2.96,2.11C157.15,35.59,157.34,35.65,157.56,35.63L157.56,35.63z"/>
<path class="st10" d="M66.51,175.68c-3.13-0.53-6.21-1.17-9.05-2.68c-0.83-0.44-1.15-1.28-1.59-2.01c-0.25-0.4-0.02-0.64,0.47-0.82
	c1.49-0.55,2.97-0.32,4.46-0.09c2.44,0.38,4.77,1.26,7.25,1.46C67.87,173.05,67.36,174.43,66.51,175.68z"/>
<path class="st8" d="M68.11,43.76c0,1.26,0.5,2.51-0.4,3.76c-0.89,1.23-1.77,1.7-3.19,1.21c-3.33-1.16-5.47-5.12-4.6-8.57
	c0.26-1.01,0.21-2.13,1.01-2.96c0.76,2.41,1.9,4.61,3.57,6.54c0.73,0.84,1.28,1.83,1.94,2.8C67.33,45.82,67.11,44.41,68.11,43.76z"
	/>
<path class="st9" d="M153.92,190.42c-1.34-2.39-0.98-4.74,0.14-7.07c0.16-0.34,0.38-0.65,0.52-0.88c3.87,2.39,6.33,6.03,8.85,9.61
	c-0.23,0.83-0.71,0.38-1.1,0.2c-1.48-0.68-2.85-1.57-4.22-2.46C156.45,188.75,155.02,188.97,153.92,190.42z"/>
<path class="st10" d="M71.57,162.11c-2.78-0.3-5.28-1.42-7.62-2.87c-1.09-0.67-1.69-1.85-2.42-2.88c-0.52-0.74-0.1-0.83,0.56-0.91
	c2.67-0.31,5.05,0.7,7.45,1.61c1.13,0.43,2.18,1.05,3.27,1.59C72.59,159.88,72.1,161,71.57,162.11z"/>
<path class="st10" d="M68.84,169.66c-2.76-1.06-5.53-2.09-7.61-4.33c-0.12-0.13-0.27-0.23-0.36-0.37c-0.48-0.7-0.98-1.59-0.44-2.27
	c0.51-0.63,1.46-0.79,2.37-0.4c2.07,0.9,4.15,1.75,6.23,2.64c0.4,0.17,0.8,0.34,1.24,0.34C69.99,166.8,69.44,168.24,68.84,169.66z"
	/>
<path class="st10" d="M79.96,140.88c-1.97-0.83-3.73-1.96-5.4-3.32c-1.55-1.26-1.78-2.96-2.31-4.92c1.32,0.52,2.54,0.7,3.61,1.33
	c1.82,1.08,3.64,2.17,5.46,3.25C81.19,138.56,80.63,139.74,79.96,140.88z"/>
<path class="st10" d="M77.52,147.13c-0.63,0.04-1.2-0.11-1.75-0.42c-1.51-0.86-2.92-1.86-4.19-3.05c-1.25-1.18-1.59-2.69-1.61-4.38
	c3.58,0.7,5.69,3.56,8.53,5.25C78.37,145.47,78.01,146.33,77.52,147.13z"/>
<path class="st10" d="M82.08,134.79c-2.64-0.53-4.73-1.92-6.29-4.09c-0.64-0.89-0.24-1.94-0.27-2.92c-0.01-0.26,0.3-0.36,0.49-0.26
	c0.84,0.47,1.82,0.51,2.64,1.08c1.52,1.05,3.05,2.08,4.22,3.55C82.69,133.06,82.46,133.95,82.08,134.79z"/>
<path class="st10" d="M74.4,154.71c-2.97-0.21-5.49-1.47-7.73-3.37c-0.2-0.17-0.38-0.37-0.5-0.6c-0.61-1.15-0.18-1.8,1.11-1.78
	c0.67,0.01,1.28,0.24,1.87,0.52c2.05,0.96,4.09,1.94,6.13,2.92C75.22,153.26,74.87,154.01,74.4,154.71z"/>
<path class="st8" d="M135.79,48.24c0.2,1.72-1.42,2.26-2.21,3.34c-0.25,0.34-0.43,0-0.54-0.23c-0.79-1.71-1.32-3.51-1.41-5.38
	c-0.07-1.49-0.72-3-0.03-4.5c1.98,1.49,3.35,3.35,3.57,5.9C135.2,47.81,135.35,48.11,135.79,48.24z"/>
<path class="st10" d="M73.85,118.19c1,1.58,2.25,2.97,3.47,4.38c0.48,0.56,0.54,0.92-0.04,1.38c-0.31,0.24-0.56,0.55-0.83,0.84
	c-1.09,1.19-1.14,1.19-2.36,0.05c-1.08-1.02-2.12-2.07-2.68-3.5C72.17,120.25,72.77,119.04,73.85,118.19z"/>
<path class="st5" d="M82.04,57.94c-1.81-0.03-2.78-1.12-3.45-2.66c-0.69-1.61-0.72-3.17,0.05-4.75c0.29-0.6,0.89-0.41,1.38-0.52
	c0.79,0.48,0.97,1.42,1.12,2.13c0.37,1.73,1.42,3.03,2.28,4.47C83.13,57.22,82.57,57.56,82.04,57.94z"/>
<path class="st10" d="M60.04,144.48c1.14,0.72,1.3,2.11,2.1,3.07c0.14,0.16,0.17,0.43,0.32,0.57c1.5,1.36,1.02,2.79,0.28,4.31
	c-0.42,0.87-0.76,0.9-1.44,0.31c-1.23-1.09-1.96-2.55-2.93-3.83C58.74,147.36,59.48,145.95,60.04,144.48z"/>
<path class="st10" d="M62.88,137.63c0.44-0.01,0.57,0.36,0.75,0.64c0.95,1.45,1.81,2.96,2.91,4.31c0.41,0.5-0.42,3.18-1,3.38
	c-0.31,0.11-0.45-0.19-0.67-0.31c-1.65-0.94-2.62-2.48-3.58-4.03C61.83,140.29,62.35,138.96,62.88,137.63z"/>
<path class="st10" d="M57.58,150.95c1,1.67,1.55,3.58,2.7,5.18c0.92,1.28,0.14,2.61,0.11,3.9c-0.01,0.51-0.45,0.46-0.88,0.19
	c-1.19-0.74-1.92-1.85-2.64-2.99c-0.36-0.58-0.47-1.32-1.08-1.75C56.17,153.89,56.78,152.38,57.58,150.95z"/>
<path class="st10" d="M141.32,145.27c-1.26,1.12-2.47,2.33-3.81,3.35c-1.33,1.01-2.92,1.28-4.58,1.14l-0.04-0.05
	c2.25-2.61,4.65-5.07,7.18-7.41C140.71,143.19,141,144.24,141.32,145.27z"/>
<path class="st10" d="M69.95,123.46c0.17,0.12,0.44,0.21,0.5,0.37c0.7,1.8,1.74,3.4,2.86,4.96c0.73,1.01-0.24,1.84-0.73,2.56
	c-0.43,0.64-1.05-0.08-1.45-0.34c-1.46-0.96-2.4-2.37-3.17-3.91C68.38,125.74,69.2,124.62,69.95,123.46z"/>
<path class="st10" d="M66.83,129.24c1.08,2.29,2.17,4.57,3.24,6.86c0.24,0.51-0.04,0.94-0.34,1.31c-0.38,0.45-0.78,0.11-1.18-0.03
	c-1.97-0.73-2.76-2.48-3.61-4.18C65.24,131.72,66,130.47,66.83,129.24z"/>
<path class="st11" d="M57.78,88.19c-0.09-1.77,0.58-2.13,2.43-2.08c1.72,0.05,3.49-0.94,5.21-1.54c1.59-0.56,3.24-0.45,4.86-0.6
	c-1.32,1.23-2.97,1.89-4.63,2.46c-2.31,0.78-4.55,1.86-7.05,1.97C58.3,88.4,57.98,88.54,57.78,88.19z"/>
<path class="st10" d="M50.34,172.8c-0.02-0.18-0.05-0.35-0.07-0.53c0.61-1.25,0.41-2.71,1.01-3.97c1.27,1.49,2.59,2.92,4.19,4.07
	c0.45,0.32,0.46,0.63,0.35,1.09c-0.13,0.5-0.25,1.02-0.26,1.53c-0.02,0.66-0.25,0.7-0.8,0.48c-1.09-0.45-2.14-0.93-3-1.78
	C51.37,173.31,50.92,172.92,50.34,172.8z"/>
<path class="st10" d="M53.9,160.67c1.51,1.55,3.04,3.08,4.51,4.67c0.69,0.74,0.11,1.49-0.25,2.15c-0.43,0.79-1,0.2-1.45-0.01
	c-1.7-0.79-2.83-2.24-4.02-3.6C52.98,162.76,53.35,161.68,53.9,160.67z"/>
<path class="st8" d="M47.39,31.96c1.04,1.75,0.61,3.78,1,5.66c0.31,1.51-1.33,2.4-3.16,1.88c-1.21-0.35-2.72-2.24-2.77-3.5
	c0-0.13,0.17-0.27,0.27-0.41c0.74,0.64,1.14,1.65,2.16,1.97c0.6,0.19,1,0.29,1.08-0.63c0.12-1.27,0.23-2.57,0.69-3.79
	C46.82,32.68,46.92,32.21,47.39,31.96z"/>
<path class="st10" d="M147.23,158.57c-0.71,0.63-1.31,1.38-2.13,1.91c-1.96,1.27-2.53,1.4-5.49,0.89c0.99-0.82,1.82-1.58,2.72-2.24
	c1.33-0.97,2.3-2.35,3.73-3.2C146.46,156.81,146.85,157.69,147.23,158.57z"/>
<path class="st9" d="M46.87,193.26c-0.14-1.23,0.71-2.04,1.34-2.87c0.92-1.2,1.87-2.45,3.38-2.97c0.64-0.22,1.62-0.64,2.02-0.08
	c0.51,0.71,1.1,1.62,0.77,2.65c-0.16,0.5-0.18,1.18-0.97,1.2c-0.13-0.22-0.34-0.44-0.23-0.72c0.17-0.41,0.39-0.91-0.05-1.16
	c-0.34-0.19-0.8,0.14-1.19,0.3c-1.6,0.65-2.69,1.85-3.53,3.3C48.01,193.63,47.56,193.94,46.87,193.26z"/>
<path class="st10" d="M144.61,152.78c-2.16,1.45-4.42,1.93-6.85,0.71c-0.32-0.16-0.67-0.32-0.64-0.73c0.02-0.36,0.39-0.46,0.66-0.56
	c0.97-0.37,1.93-0.82,2.94-1.02c1.08-0.22,1.95-0.66,2.66-1.47C143.69,150.77,144.42,151.67,144.61,152.78z"/>
<path class="st10" d="M130.8,157.61c2,0.09,3.99,0.21,5.99,0.24c0.84,0.01,1.18,0.45,1.33,1.15c0.16,0.77-0.35,1.09-0.96,1.34
	c-1.64,0.66-3.36,0.38-5.04,0.46C131.65,159.75,131,158.78,130.8,157.61z"/>
<path class="st10" d="M150.87,167.52c-1.4,1.12-2.91,1.92-4.78,1.65c-0.13-0.02-0.27,0.01-0.39-0.02c-0.64-0.16-1.45-0.34-1.63-0.94
	c-0.22-0.75,0.72-0.92,1.19-1.12c1.62-0.69,2.93-1.85,4.44-2.7C150.24,165.38,150.74,166.38,150.87,167.52z"/>
<path class="st10" d="M125.1,144.02c1.74,0.25,3.49,0.5,5.23,0.76c0.87,0.13,1.61,0.61,2.35,1.05c-1.22,1.52-2.75,2.1-4.61,1.68
	c-0.56-0.13-1.11-0.17-1.67-0.18C125.72,146.32,125.43,145.16,125.1,144.02z"/>
<path class="st10" d="M136.05,130.84c-0.66,0.87-1.41,1.64-2.26,2.32c-1.1,0.87-2.31,1.37-3.93,0.97c1.02-2.67,3.68-4.08,4.95-6.51
	C135.39,128.63,135.69,129.75,136.05,130.84z"/>
<path class="st10" d="M137.91,174.66c-0.18-0.35-0.37-0.71-0.55-1.06c-0.27-0.79-0.54-1.58-0.8-2.37c0.97-0.31,1.67,0.48,2.54,0.65
	c1.85,0.36,3.73,0.79,5.29,2.08c-1.78,1.41-3.7,1.4-5.71,0.84C138.42,174.72,138.16,174.7,137.91,174.66z"/>
<path class="st10" d="M138.56,138.17c-0.69,0.44-1.35,0.95-2.09,1.3c-1.94,0.93-2.4,0.92-4.89,0.21c1.52-2.08,4.13-2.81,5.83-4.68
	C137.9,136.02,138.29,137.07,138.56,138.17z"/>
<path class="st11" d="M133.95,89.07c2.41-1.81,5.22-2.57,8.15-2.62c1.39-0.02,2.97-0.41,4.25,0.64c-1.52,0.81-3.24,0.67-4.85,1.06
	c-1.29,0.32-2.6,0.62-3.87,0.99C136.38,89.51,135.17,89.45,133.95,89.07z"/>
<path class="st10" d="M128.21,152.04c0.8-0.34,1.64-0.18,2.45-0.14c1.27,0.06,2.5-0.23,3.76-0.26c0.36-0.01,0.88-0.21,1.04,0.27
	c0.14,0.41-0.32,0.66-0.56,0.97c-1.39,1.82-3.36,1.94-5.41,1.86C128.82,153.95,128.67,152.92,128.21,152.04z"/>
<path class="st10" d="M123.15,138.46c1.61,0.14,3.18-0.3,4.79-0.28c0.83,0.01,1.92,0.05,2.13,0.78c0.14,0.48-0.87,1.19-1.56,1.54
	c-1.38,0.69-2.86,0.92-4.4,0.83C123.62,140.42,123.33,139.46,123.15,138.46z"/>
<path class="st10" d="M133.83,164.7c1.92,0.27,3.8,0.78,5.75,0.82c0.78,0.02,0.92,0.77,1.07,1.3c0.19,0.66-0.54,0.69-0.91,0.85
	c-1.46,0.61-2.96,0.4-4.46,0.15C134.58,166.87,134.33,165.72,133.83,164.7z"/>
<path class="st1" d="M157.56,35.63c-0.22,0.02-0.41-0.04-0.52-0.26C157.27,35.36,157.47,35.38,157.56,35.63z"/>
<path class="st11" d="M70.28,83.97c0.01-0.07,0.02-0.13,0.03-0.2c0.06,0.03,0.12,0.07,0.17,0.1C70.45,83.96,70.38,84,70.28,83.97z"
	/>
<path class="st12" d="M99.53,88.42c-2.56,1.29-5.19,2.44-7.88,3.43c-0.84,0.31-1.33,0-1.8-0.57c-2.52-3.07-2.46-10.28,3.95-11.25
	c2.33-0.35,5.28,1.39,5.74,4.72c0.13,0.94,0.15,1.9,0.23,2.86C99.6,87.86,99.47,88.11,99.53,88.42z M94,84.15
	c-0.61,0.17-1.69,0.03-0.87,1.3c0.2,0.3,0.01,0.54-0.23,0.62c-1.19,0.37-0.36,0.92-0.06,1.24c0.59,0.62,1.39,0.63,2.08,0.21
	c0.68-0.41,1-1.13,0.74-1.9C95.42,84.89,95.04,84.17,94,84.15z"/>
<path class="st12" d="M118.46,92.4c-1.65-0.33-3.07-1.32-4.77-1.6c-0.73-0.12-1.46-0.01-2.17-0.22c-0.19-0.22-0.38-0.44-0.57-0.67
	c-0.19-0.35-0.39-0.69-0.58-1.04c-0.41-1.73-0.42-3.42,0.3-5.09c0.83-1.93,2.25-3.05,4.33-3.29c2.28-0.26,4.05,0.67,5.45,2.43
	c0.72,0.91,0.29,2.02,0.54,3.03C121.66,88.68,120.73,90.88,118.46,92.4z M115.82,87.63c1.45,0,1.68-0.26,1.44-1.6
	c-0.03-0.16,0.03-0.21,0.13-0.3c0.76-0.74,0.11-1.14-0.41-1.51c-0.62-0.44-1.2-0.4-1.69,0.25c-0.18,0.25-0.16,0.31,0.11,0.55
	c0.61,0.56,0.56,0.65-0.37,0.77c-0.41,0.05-0.57,0.25-0.46,0.57C114.79,86.99,114.79,87.93,115.82,87.63z"/>
<path class="st7" d="M111.22,125.51c0.67-5.42,1.11-10.84,0.3-16.43C114.37,113.04,114.2,121.35,111.22,125.51z"/>
<path class="st6" d="M99.05,119.23c0.19-0.67-0.35-1.21-0.43-1.85c3.23,0.16,5.07,3.15,5.43,5.76c0.05,0.4-0.05,0.77-0.24,1.13
	c-0.21,0.39-0.5,0.59-0.94,0.53c-0.4-0.06-0.54-0.33-0.66-0.7c-0.27-0.83-0.33-1.81-1.36-2.18
	C100.35,120.95,100.03,119.87,99.05,119.23z"/>
<path class="st6" d="M117.48,58.92c2.2,0.52,3.36,2.35,4.8,3.81c1.65,1.65,1.6,3.88,1.91,5.98c-0.8-0.35-0.73-1.23-1.03-1.85
	c-1.15-2.43-3.2-4.07-4.98-5.95C117.64,60.34,117.31,59.72,117.48,58.92z"/>
<path class="st7" d="M99.05,119.23c0.98,0.64,1.31,1.72,1.8,2.68c-0.04,1.19,0.21,2.41-0.47,3.67c-0.97-2.25-1.51-4.62-3.51-6.43
	C97.81,119.03,98.43,119.01,99.05,119.23z"/>
<path class="st6" d="M110.38,88.87c0.19,0.35,0.39,0.69,0.58,1.04c-0.65,0.12-1.07-0.26-1.44-0.7c-0.74-0.89-1.69-1.11-2.77-0.91
	c-0.42,0.08-0.79,0.01-1.11-0.22c-1.57-1.11-3.15-0.96-4.77-0.12c-0.41,0.22-0.89,0.31-1.34,0.45c-0.05-0.31,0.07-0.56,0.23-0.81
	c0.26-0.04,0.53-0.04,0.77-0.12C104.06,86.22,107.3,86.99,110.38,88.87z"/>
<path class="st7" d="M119.23,125.05c-0.22-1.77,0.78-3.82,2.07-4.5c0.47-0.25,1.04-0.34,1.33-0.02c0.34,0.38-0.29,0.61-0.49,0.89
	c-0.45,0.63-0.91,1.26-1.41,1.84C120.25,123.82,119.97,124.53,119.23,125.05z"/>
<path class="st6" d="M87.26,93.86c0.04-0.03,0.08-0.07,0.11-0.1C87.34,93.79,87.3,93.83,87.26,93.86
	C87.27,93.87,87.26,93.86,87.26,93.86z"/>
<path class="st10" d="M132.92,149.75c-0.11,0.21-0.29,0.25-0.51,0.19c-0.03-0.01-0.05-0.06-0.08-0.09c0.18-0.05,0.36-0.1,0.54-0.15
	C132.88,149.71,132.92,149.75,132.92,149.75z"/>
<path class="st13" d="M94,84.15c1.04,0.02,1.42,0.74,1.66,1.47c0.26,0.77-0.06,1.5-0.74,1.9c-0.69,0.41-1.5,0.4-2.08-0.21
	c-0.3-0.32-1.13-0.87,0.06-1.24c0.24-0.07,0.42-0.31,0.23-0.62C92.31,84.18,93.38,84.31,94,84.15z"/>
<path class="st13" d="M115.82,87.63c-1.03,0.31-1.03-0.63-1.26-1.27c-0.11-0.32,0.05-0.52,0.46-0.57c0.93-0.12,0.98-0.22,0.37-0.77
	c-0.27-0.24-0.29-0.3-0.11-0.55c0.49-0.65,1.07-0.68,1.69-0.25c0.53,0.37,1.18,0.77,0.41,1.51c-0.09,0.09-0.15,0.14-0.13,0.3
	C117.5,87.36,117.27,87.63,115.82,87.63z"/>
</svg>
