<svg xmlns="http://www.w3.org/2000/svg" viewBox="0 0 72 72"><defs><style>.a{fill:#3d1435;}.b{fill:#ba77af;}.c{fill:#ba78b0;}.d{fill:#3e1537;}</style></defs><path class="a" d="M36.28,70.48H14.8a13,13,0,0,1-5.94-1c-4.47-2.21-7.1-5.74-7.12-10.79Q1.63,36,1.73,13.33A11.86,11.86,0,0,1,13.11,1.55c.85,0,1.69,0,2.54,0q21.32,0,42.62,0A12,12,0,0,1,69.43,8.11a12.17,12.17,0,0,1,1.28,6.05q0,13.28,0,26.55c0,5.81,0,11.62,0,17.42a12.25,12.25,0,0,1-7.8,11.57,15.35,15.35,0,0,1-5.49.78Z"/><path class="b" d="M8.5,35.89q0-6.42,0-12.86c0-1.81,0-1.79,1.89-1.86a66.24,66.24,0,0,1,9.45.08c5.06.56,8.66,3.15,10.47,7.88a18,18,0,0,1-.1,13.37c-1.92,4.87-5.75,7.32-10.76,8.18a44.75,44.75,0,0,1-9.61.13c-1.28-.06-1.33-.11-1.34-1.38C8.49,44.91,8.5,40.4,8.5,35.89Z"/><path class="c" d="M42.5,43.87c.28-.94.6-1.87.83-2.82.83-3.44,1.62-6.88,2.42-10.32.41-1.81.54-1.92,2.35-1.93.56,0,1.12,0,1.69,0,1.51,0,1.71.15,2.05,1.64.95,4.16,1.88,8.33,2.82,12.5.09.38.22.75.34,1.18A1.75,1.75,0,0,0,55.53,43c1.09-4.2,1.84-8.47,3-12.63.42-1.46.38-1.47,1.92-1.5l1.69,0c1.7,0,1.83.19,1.34,1.9Q62.88,33,62.2,35.23q-2,7.05-4.11,14.09c-.43,1.43-.47,1.42-2,1.44-.9,0-1.81,0-2.71.05a1.25,1.25,0,0,1-1.5-1.17c-.88-4.06-1.86-8.1-2.8-12.15A3.78,3.78,0,0,0,48.57,36c-1,2.7-1.56,5.46-2.35,8.15-.49,1.67-.85,3.38-1.3,5.06-.39,1.46-.5,1.53-2,1.54-1,0-2,0-3,0a1.15,1.15,0,0,1-1.3-1q-1.68-6.62-3.43-13.22c-.55-2.12-1.17-4.23-1.71-6.35-.29-1.15-.1-1.34,1.15-1.38.9,0,1.81,0,2.71,0,1.31,0,1.41.07,1.72,1.35.51,2.08,1,4.17,1.44,6.25.57,2.47,1.13,4.93,1.7,7.39Z"/><path class="d" d="M14,36c0-3,0-6,0-9,0-1.64,0-1.67,1.73-1.69a12.21,12.21,0,0,1,4.83.55c3,1.18,4.42,3.56,4.94,6.54a17.94,17.94,0,0,1-.41,8.52,7.74,7.74,0,0,1-6.88,5.64,15.32,15.32,0,0,1-3,0c-1.12-.06-1.18-.15-1.19-1.36,0-3.1,0-6.2,0-9.29Z"/></svg>