<svg xmlns="http://www.w3.org/2000/svg" viewBox="0 0 72 72"><defs><style>.a{fill:#182347;}.b{fill:#9193c8;}.c{fill:#9294c9;}.d{fill:#182448;}</style></defs><path class="a" d="M36.1,70.51c-7.5,0-15,0-22.5,0A12,12,0,0,1,2.15,62.55a11.54,11.54,0,0,1-.69-4c0-15.06,0-30.11,0-45.17A12.06,12.06,0,0,1,12.65,1.59c.62,0,1.24-.07,1.86-.07H57.65A12.61,12.61,0,0,1,65,3.5a11.85,11.85,0,0,1,5.46,10c.1,3.66,0,7.33,0,11q0,16.76,0,33.5a12.06,12.06,0,0,1-5.84,10.78,12.74,12.74,0,0,1-7.1,1.79c-7.17,0-14.33,0-21.49,0Z"/><path class="b" d="M36.94,50.49c-1.82,0-3.51,0-5.19,0a1.75,1.75,0,0,1-1.62-1L24.9,41c-.27-.43-.5-.89-.79-1.3A4,4,0,0,0,20,38.59c-.53.24-.45.73-.46,1.17q0,3,0,6.08c0,1.18,0,2.37,0,3.55,0,.8-.35,1.11-1.12,1.09-1.07,0-2.14,0-3.21,0-.76,0-1.16-.31-1.12-1.11,0-.39,0-.79,0-1.18V22.83c0-.34,0-.68,0-1,0-.65.31-.9.92-.91.9,0,1.8-.07,2.7-.07a67.13,67.13,0,0,1,7.77.11,10.11,10.11,0,0,1,6.11,2.56,8.09,8.09,0,0,1-1,12.26c-.68.48-1.83.68-2,1.44s.83,1.51,1.32,2.25c2.06,3.09,4.29,6.06,6.22,9.24A3.38,3.38,0,0,1,36.94,50.49Z"/><path class="c" d="M51.26,49a9.68,9.68,0,0,1-6.82,1.8,6.21,6.21,0,0,1-6-6.16c-.16-2.75-.1-5.52-.12-8.28,0-2.2,0-4.4,0-6.6,0-.84.25-1.27,1.16-1.23s2,0,3,0c1.2,0,1.31.14,1.31,1.43,0,3.61,0,7.22,0,10.82,0,.74,0,1.47,0,2.2,0,1.46.55,2.81,2,3.27a4.51,4.51,0,0,0,4.61-.82,2.16,2.16,0,0,0,.54-1.86q0-6.26,0-12.52v-1c0-1.47,0-1.48,1.55-1.5.9,0,1.81,0,2.71,0,1.1,0,1.24.17,1.25,1.31,0,2.26,0,4.51,0,6.77,0,4.17-.16,8.34.15,12.51.1,1.26,0,1.29-1.3,1.31-.62,0-1.24,0-1.86,0C52.4,50.57,51.53,50.42,51.26,49Z"/><path class="d" d="M19.57,29.63c0-1.18,0-2.36,0-3.53,0-.76.26-1.09,1.07-1.15a17.09,17.09,0,0,1,3.85.1,4.17,4.17,0,0,1,3.86,4.14c.1,2.64-1.19,4.5-3.57,5a24.55,24.55,0,0,1-4.54.11c-.63,0-.67-.46-.67-.93V29.63Z"/></svg>