<svg xmlns="http://www.w3.org/2000/svg" viewBox="0 0 72 72"><defs><style>.a{fill:#182347;}.b{fill:#9294c8;}.c{fill:#9194c8;}.d{fill:#1a264c;}</style></defs><path class="a" d="M1.69,36.59c0-7.22,0-14.43,0-21.65A12.34,12.34,0,0,1,5.88,5,11.78,11.78,0,0,1,14,2.1H57.77a13.11,13.11,0,0,1,6.37,1.34,11.8,11.8,0,0,1,6.57,10.31c.05.79,0,1.58,0,2.37q0,21.23,0,42.45a12,12,0,0,1-5.85,10.77,11.13,11.13,0,0,1-6.09,1.75c-15,0-30.11,0-45.16,0A11.87,11.87,0,0,1,1.72,59.42c-.05-1,0-1.91,0-2.87Z"/><path class="b" d="M34.48,27.39a1.94,1.94,0,0,0-.93,1.44q-3,10.38-6,20.76c-.51,1.74-.5,1.74-2.3,1.76H24.09c-2.33,0-2.31,0-2.95-2.29-1.95-6.87-4-13.72-5.67-20.66a1.67,1.67,0,0,0-.73-1.33V29c-.08,6.94-.33,13.87-.67,20.79-.08,1.53-.1,1.54-1.68,1.55h-2.2c-1.62,0-1.65,0-1.59-1.58.1-2.59.24-5.18.38-7.77q.46-8.1.94-16.2c.07-1.18.18-2.36.25-3.54a.85.85,0,0,1,1-.91c2.08,0,4.17,0,6.25,0,1.06,0,1.3.71,1.53,1.48q1,3.41,2,6.82c1.25,4.43,2.49,8.87,3.75,13.31.54-.16.52-.68.64-1.09Q28.17,32.33,31,22.79c.41-1.38.46-1.44,1.84-1.45,1.74,0,3.49,0,5.24,0,1.24,0,1.29.05,1.36,1.35q.26,4.29.43,8.61c.17,4.39.3,8.78.47,13.17.07,1.81.24,3.6.29,5.4,0,1.38,0,1.42-1.42,1.45-1,0-2,0-3,0-1.55,0-1.58,0-1.6-1.66-.05-3.78-.09-7.55-.11-11.33C34.47,34.8,34.48,31.25,34.48,27.39Z"/><path class="c" d="M62,46.49a14,14,0,0,1,.13,3.17,1.1,1.1,0,0,1-.89,1.09,16.1,16.1,0,0,1-11.71,0,8.52,8.52,0,0,1-4.86-5.35C43,40.57,43.55,36,47,32.08a9,9,0,0,1,6.56-3,11.72,11.72,0,0,1,3.86.28,8.63,8.63,0,0,1,6.4,7.79c0,.9,0,1.8,0,2.7-.07,1.38-.19,1.49-1.61,1.6-.84.07-1.69.08-2.53.08-2.87,0-5.75,0-8.62,0-1.21,0-1.35.22-1.16,1.41A5.52,5.52,0,0,0,55,47.31a13.46,13.46,0,0,0,5.5-.52A2.94,2.94,0,0,1,62,46.49Z"/><path class="d" d="M53.89,37.85h-3.2c-.62,0-1-.2-.84-.89.59-3.09,3.14-5,6.2-3.83a4.24,4.24,0,0,1,2.29,4c-.07.61-.4.74-.9.73Z"/></svg>