<svg xmlns="http://www.w3.org/2000/svg" viewBox="0 0 72 72"><defs><style>.a{fill:#2b0601;}.b{fill:#e89c37;}.c{fill:#e89b39;}.d{fill:#e49c38;}.e{fill:#340c06;}</style></defs><path class="a" d="M1.51,36c0-7.44.09-14.89,0-22.33A12.2,12.2,0,0,1,10.9,1.78a13.12,13.12,0,0,1,2.86-.25c14.83,0,29.67.06,44.5,0a12.21,12.21,0,0,1,11.83,8.83,13,13,0,0,1,.41,3.34c0,15,0,29.89,0,44.83A12,12,0,0,1,58.75,70.45q-11.43,0-22.84,0c-7.22,0-14.44,0-21.66,0a12.31,12.31,0,0,1-8.58-2.94,11.49,11.49,0,0,1-4.16-8.89Q1.5,47.32,1.51,36Z"/><path class="b" d="M31.35,21.93c.79,0,1.58,0,2.37,0A1.32,1.32,0,0,1,35.18,23c1.74,5,3.54,10,5.31,15q2.13,6,4.25,12.1c.1.27.21.52.31.79.18.53.07.92-.56.92-1.46,0-2.93,0-4.39,0-.79,0-1-.68-1.16-1.26-.6-1.76-1.18-3.52-1.78-5.28s-.56-1.64-2.25-1.64c-2.36,0-4.73,0-7.1,0-1.65,0-1.66,0-2.21,1.65s-1.11,3.43-1.67,5.14c-.45,1.38-.46,1.4-1.87,1.42-.9,0-1.8,0-2.71,0-1.17,0-1.26-.14-.87-1.31.9-2.66,1.84-5.32,2.76-8,2-5.63,3.94-11.26,5.89-16.9A13.17,13.17,0,0,0,27.8,23c.12-.89.56-1.12,1.36-1.08s1.46,0,2.19,0Z"/><path class="c" d="M53.69,41c0,3.1,0,6.2,0,9.3,0,1.39-.07,1.44-1.41,1.46-1,0-2,0-3,0-.81,0-1.13-.33-1.08-1.11,0-.28,0-.56,0-.84q0-9,0-17.93c0-.34,0-.68,0-1,0-.53.2-.88.78-.88h3.89a.75.75,0,0,1,.82.85c0,.39,0,.79,0,1.18v9Z"/><path class="d" d="M53.92,23.28a2.87,2.87,0,0,1-3.05,2.89A2.83,2.83,0,0,1,48,23.11a2.84,2.84,0,0,1,3-2.89A2.89,2.89,0,0,1,53.92,23.28Z"/><path class="e" d="M31.41,27.24a16.66,16.66,0,0,1,1.25,3.41c.78,2.23,1.47,4.49,2.2,6.74.1.32.2.64.27,1,.1.52-.06.9-.67.91-2,0-4.05.07-6.08.08-.62,0-1-.28-.78-1Q29.28,33,31,27.62C31,27.53,31.16,27.47,31.41,27.24Z"/></svg>