<svg xmlns="http://www.w3.org/2000/svg" viewBox="0 0 72 72"><defs><style>.a{fill:#233015;}.b{fill:#a5ce5f;}.c{fill:#233016;}</style></defs><path class="a" d="M35.7,69.8H14.38a12.84,12.84,0,0,1-7.57-1.91,11.78,11.78,0,0,1-5.5-9.41c0-.56-.06-1.13-.06-1.69q0-21.32,0-42.64a19.07,19.07,0,0,1,.23-3.7A12,12,0,0,1,13,.85c4.23,0,8.46,0,12.69,0q16.06,0,32.14,0A12,12,0,0,1,70.31,13.31c0,5.07,0,10.15,0,15.22q0,14.47,0,28.93A12.13,12.13,0,0,1,62.51,69a15.56,15.56,0,0,1-5.66.76Q46.27,69.82,35.7,69.8Z"/><path class="b" d="M13.08,35.23c0-4.23,0-8.45,0-12.68,0-2.11-.13-2,2.05-2,2.93,0,5.87-.09,8.79,0a12.38,12.38,0,0,1,12,9.6,17.44,17.44,0,0,1-1.31,13c-2.23,4.26-6.14,6.18-10.7,6.78a68,68,0,0,1-9.79.1c-1,0-1.05-.11-1.06-1.45,0-2.26,0-4.51,0-6.77S13.07,37.43,13.08,35.23Z"/><path class="b" d="M45.35,30a11,11,0,0,1,6.43-2.12c2.36.07,5.5,1.64,6.25,4.78a16.25,16.25,0,0,1,.53,3.66q0,6.09,0,12.18c0,1.48,0,1.49-1.52,1.51-1,0-1.92,0-2.87,0-.79,0-1.14-.3-1.12-1.1,0-1.07,0-2.14,0-3.21,0-2.87,0-5.75,0-8.62,0-.34,0-.68,0-1-.16-3.19-2.09-4.6-5.12-3.67a2.86,2.86,0,0,0-2.35,3c.11,4.28,0,8.57,0,12.85,0,1.71,0,1.71-1.66,1.73-.84,0-1.69,0-2.53,0s-1.29-.26-1.23-1.16c0-.5,0-1,0-1.52,0-5.8.1-11.61-.18-17.41-.08-1.64,0-1.64,1.65-1.65h1.18C44.64,28.3,44.64,28.3,45.35,30Z"/><path class="c" d="M18.56,35.31c0-3.15,0-6.31,0-9.47,0-1.2.05-1.23,1.24-1.26a17.52,17.52,0,0,1,4.22.14,7.7,7.7,0,0,1,6.3,5.88,17.69,17.69,0,0,1,0,8.88c-1.05,4.1-3.77,6.27-8,6.53-3.82.24-3.82.24-3.82-3.59V35.31Z"/></svg>