<svg xmlns="http://www.w3.org/2000/svg" viewBox="0 0 72 72"><defs><style>.a{fill:#071b33;}.b{fill:#5c99d3;}.c{fill:#5b9ad3;}</style></defs><path class="a" d="M36.05,70.19H14.9a13.15,13.15,0,0,1-7.45-1.76c-3.66-2.36-5.79-5.67-5.81-10.07,0-15.11,0-30.22,0-45.32A12.12,12.12,0,0,1,13.52,1.22c15.06.05,30.11,0,45.16,0A11.8,11.8,0,0,1,70.51,11.84a21.34,21.34,0,0,1,.15,2.53q0,21.39,0,42.78a12.56,12.56,0,0,1-2.41,8.1C66,68.19,63,70,59.21,70.09c-5.29.08-10.59.07-15.89.09Z"/><path class="b" d="M21,34.46c0-4.45,0-8.9,0-13.35,0-1.48,0-1.5,1.5-1.5q7.61,0,15.21,0c1.44,0,1.53.09,1.71,1.48.46,3.51.16,2.84-2.51,2.86-2.87,0-5.75,0-8.62,0-1.49,0-1.51,0-1.53,1.52,0,1.86,0,3.72,0,5.58s0,1.72,1.69,1.73c2.59,0,5.18,0,7.77,0h1.35a.87.87,0,0,1,.94,1c0,.11,0,.22,0,.34,0,3.42.24,3.08-2.91,3.1-2.42,0-4.84,0-7.26,0-1.44,0-1.56.11-1.57,1.52,0,3,0,6,0,9,0,1.83,0,1.83-1.9,1.84-1,0-2,0-3,0-.56,0-.82-.25-.82-.82,0-.73,0-1.46,0-2.19v-12Z"/><path class="c" d="M47.32,30.19a9,9,0,0,1,4.1-2.58,8.32,8.32,0,0,1,1-.26c1.9-.29,2.16-.07,2.18,1.84v.33c-.06.9.29,1.91-.2,2.65s-1.58.24-2.38.43a12.27,12.27,0,0,0-2.4.79,3.5,3.5,0,0,0-2.31,3.67c.17,3.6.05,7.2,0,10.8,0,1.63,0,1.63-1.71,1.64-.95,0-1.91,0-2.87,0a1,1,0,0,1-1.16-1.11c0-.56,0-1.12,0-1.68l-.06-17.56c0-1.44,0-1.44,1.52-1.46H44.7c1.92,0,1.91,0,2.31,1.86A3.58,3.58,0,0,0,47.32,30.19Z"/></svg>