<svg xmlns="http://www.w3.org/2000/svg" viewBox="0 0 72 72"><defs><style>.a{fill:#182347;}.b{fill:#9194c8;}.c{fill:#9294c8;}.d{fill:#1a264b;}</style></defs><path class="a" d="M36,70.47c-7.45,0-14.89-.08-22.33,0A12.2,12.2,0,0,1,1.74,61.09a11.27,11.27,0,0,1-.24-2.52c0-15,.08-30,0-45a12.24,12.24,0,0,1,12.07-12c13.37.05,26.73,0,40.09,0,1.58,0,3.16,0,4.74,0a12,12,0,0,1,12.15,12.1c0,5.35,0,10.71,0,16.06q0,14.22,0,28.42a11.91,11.91,0,0,1-4.06,9.29,11.57,11.57,0,0,1-8,3c-7.5,0-15,0-22.49,0Z"/><path class="b" d="M25.41,42.25c-1.24,0-2.48,0-3.72,0a1.13,1.13,0,0,0-1.32,1c-.58,2.06-1.34,4.06-1.91,6.12a1.48,1.48,0,0,1-1.69,1.25c-.95,0-1.92,0-2.87,0s-1.1-.31-.83-1.2c.5-1.67,1.06-3.32,1.6-5l6.72-20.53a8.59,8.59,0,0,0,.32-1.13c.36-1.86.35-1.86,2.31-1.87,1.18,0,2.37,0,3.55,0A1.4,1.4,0,0,1,29.15,22c1.93,5.87,3.9,11.74,5.87,17.6,1,3,2,6,3,9a9.77,9.77,0,0,1,.35,1.13c.12.54-.11.9-.69.91-1.35,0-2.7,0-4.05,0-.78,0-1-.61-1.19-1.22-.61-1.87-1.21-3.75-1.84-5.62-.49-1.45-.51-1.45-2-1.46Z"/><path class="c" d="M53.21,49c-1.92,1.72-4.2,1.86-6.54,1.76a6.13,6.13,0,0,1-6.17-5.58,16.92,16.92,0,0,1-.17-2.36q0-6.26,0-12.52c0-1.75,0-1.75,1.81-1.77h2c1.71,0,1.72,0,1.72,1.66,0,2.59,0,5.19,0,7.78,0,1.52,0,3,0,4.57.1,3.59,2.78,5.07,5.94,3.34a2,2,0,0,0,1.19-2c-.05-4.4,0-8.8,0-13.19,0-2.23-.22-2.13,2.08-2.15.79,0,1.58,0,2.36,0s1.06.26,1,1c0,.45,0,.9,0,1.35,0,5.53.05,11,.09,16.57,0,.68.1,1.35.14,2s-.23,1.09-1,1.1c-1,0-2,0-3,0S53.69,49.72,53.21,49Z"/><path class="d" d="M29,37.78H21.82c1.15-3.9,2.26-7.63,3.36-11.36l.37,0C26.7,30.13,27.85,33.88,29,37.78Z"/></svg>