<svg xmlns="http://www.w3.org/2000/svg" viewBox="0 0 72 72"><defs><style>.a{fill:#041d34;}.b{fill:#459cd7;}.c{fill:#449cd7;}.d{fill:#071e37;}</style></defs><path class="a" d="M1.49,37c0-7.33.14-14.66,0-22A12.27,12.27,0,0,1,13.91,2.45c14.71.07,29.43,0,44.14,0A12,12,0,0,1,69,8.63a12.76,12.76,0,0,1,1.58,6.66V58.42a13.05,13.05,0,0,1-1.66,7,11.94,11.94,0,0,1-9.8,6c-.45,0-.9,0-1.35,0q-21.91,0-43.81,0a12.09,12.09,0,0,1-7.85-2.61,11.43,11.43,0,0,1-4.57-9.21C1.46,52.07,1.5,44.52,1.49,37Z"/><path class="b" d="M17,36.85q0-6.68,0-13.36c0-1.56,0-1.57,1.55-1.63a71.49,71.49,0,0,1,10.14,0c3.28.33,6.1,1.59,7.93,4.51a9.45,9.45,0,0,1-4.82,13.93,15.24,15.24,0,0,1-5.29,1c-.79,0-1.58.08-2.36.13-1.34.1-1.36.11-1.37,1.53,0,2,0,4,0,6.08,0,2.64,0,2.64-2.58,2.63H17.85c-.56,0-.82-.27-.83-.82s0-.9,0-1.35q0-3.21,0-6.43V36.85Z"/><path class="c" d="M53.83,34.94c-.81-.31-1.51-.51-2.16-.82a7.93,7.93,0,0,0-4.3-.54A1.93,1.93,0,0,0,45.5,35a2,2,0,0,0,1.11,2.23,20.31,20.31,0,0,0,3.23,1.45,13.63,13.63,0,0,1,3.33,2c3.31,2.47,3,8.57-1.72,10.55a13.28,13.28,0,0,1-10.35-.09A1.52,1.52,0,0,1,40,49.45c0-.78,0-1.58,0-2.36.05-1.13.25-1.27,1.16-.68a9.88,9.88,0,0,0,7,1.34,1.86,1.86,0,0,0,1-3.14,5.87,5.87,0,0,0-2.28-1.41A16.7,16.7,0,0,1,42,40.54a6.13,6.13,0,0,1-1-7.94,7.19,7.19,0,0,1,5.55-3.1,16.66,16.66,0,0,1,5.54.3c1.64.35,1.89.7,1.9,2.4,0,.67,0,1.35,0,2A6,6,0,0,1,53.83,34.94Z"/><path class="d" d="M25.2,26.09a9.24,9.24,0,0,1,3.84.45c2.27.85,3.37,2.7,3.24,5.51a4.74,4.74,0,0,1-3.69,4.67,16.77,16.77,0,0,1-4.69.41c-.77,0-1.1-.38-1.1-1.16q0-4.47,0-9c0-.64.28-.93.91-.92S24.93,26.09,25.2,26.09Z"/></svg>