<svg xmlns="http://www.w3.org/2000/svg" viewBox="0 0 72 72"><defs><style>.a{fill:#182347;}.b{fill:#9193c8;}.c{fill:#9294c9;}.d{fill:#192449;}.e{fill:#1c2750;}</style></defs><path class="a" d="M1.32,36.11c0-7.61,0-15.23,0-22.84A12,12,0,0,1,13,1.79h.68c14.77,0,29.55.05,44.32,0a12.29,12.29,0,0,1,11.85,8.81,13.89,13.89,0,0,1,.45,3.5q0,22.32,0,44.65a12.08,12.08,0,0,1-12.08,12q-22.41-.1-44.83,0c-6.33,0-12.07-5.24-12.08-11.62L1.26,41.52V36.11Z"/><path class="b" d="M35.7,50.37c-3.08-.07-2.51.53-3.56-2.58-.51-1.49-1-3-1.44-4.5A1.48,1.48,0,0,0,29,42.1c-2.37.06-4.73,0-7.1,0a1.26,1.26,0,0,0-1.44,1c-.57,2-1.22,4-1.85,6-.43,1.34-.44,1.34-1.9,1.29-.73,0-1.46,0-2.19,0-1.44,0-1.53-.17-1.12-1.61.22-.75.44-1.51.68-2.26Q17.4,36.24,20.77,26A15.83,15.83,0,0,0,22,21.45a.66.66,0,0,1,.74-.71c1.81,0,3.61,0,5.41,0,.73,0,.92.47,1.11,1,.81,2.46,1.64,4.91,2.46,7.37l6.36,19c.09.27.17.53.25.8.38,1.26.32,1.36-.94,1.4C36.82,50.38,36.26,50.36,35.7,50.37Z"/><path class="c" d="M56.69,45.65A1.66,1.66,0,0,1,57,46.77c.22,2.74.09,3-2.52,3.59a16.17,16.17,0,0,1-7.7,0c-3.88-1-5.94-3.76-6.77-7.46a13.8,13.8,0,0,1,1.12-9.68c2-3.87,5.64-5.64,10.11-5.16,4.29.47,6.72,3.81,7.25,7.7a15.21,15.21,0,0,1,.1,2.7c-.07,1.61-.31,1.85-1.91,1.88-2.31,0-4.62,0-6.93,0-1.07,0-2.14,0-3.21,0s-1.37.24-1.12,1.43a5.23,5.23,0,0,0,4.43,4.47,13.71,13.71,0,0,0,5-.21C55.49,46,56.08,45.81,56.69,45.65Z"/><path class="d" d="M25.58,26.12c.72,1.61,1.05,3.34,1.61,5,.62,1.86,1.16,3.76,1.75,5.64.24.75-.05,1-.79,1-1.75,0-3.5,0-5.25,0-.63,0-1-.18-.75-.9,1.07-3.5,2.12-7,3.19-10.5C25.36,26.29,25.48,26.22,25.58,26.12Z"/><path class="e" d="M49.11,36.94c-1,0-1.91,0-2.87,0-.64,0-.92-.24-.86-.9A4.33,4.33,0,0,1,50.51,32a4,4,0,0,1,2.83,4.23c-.13.59-.6.66-1,.68-1.07,0-2.14,0-3.21,0Z"/></svg>