<svg xmlns="http://www.w3.org/2000/svg" viewBox="0 0 72 72"><defs><style>.a{fill:#182347;}.b{fill:#9193c8;}.c{fill:#9092c7;}.d{fill:#19254a;}</style></defs><path class="a" d="M36.05,70.47c-7.56,0-15.11,0-22.67,0A11.92,11.92,0,0,1,1.71,61a12.52,12.52,0,0,1-.24-2.86c0-14.77.07-29.54,0-44.31A12.27,12.27,0,0,1,13.73,1.54c14.72.09,29.44.15,44.15,0A12.36,12.36,0,0,1,70.54,13.89c0,1.52,0,3,0,4.56,0,13,0,25.94,0,38.9,0,4.73-1.62,8.59-5.62,11.27a11.48,11.48,0,0,1-6.56,1.87c-7.44,0-14.89,0-22.33,0Z"/><path class="b" d="M35.16,50.63c-2.9-.08-2.54.54-3.57-2.62-.51-1.55-1.06-3.09-1.52-4.66a1.28,1.28,0,0,0-1.44-1.07c-2.43,0-4.85,0-7.28,0a1.29,1.29,0,0,0-1.42,1.11q-.86,2.91-1.83,5.79c-.47,1.42-.5,1.41-2,1.43-.73,0-1.47,0-2.2,0-1.44,0-1.51-.11-1.09-1.44.59-1.87,1.19-3.75,1.8-5.62q3.16-9.7,6.35-19.4a12.43,12.43,0,0,0,.56-2.47.79.79,0,0,1,.89-.8h5.24c.73,0,.93.52,1.12,1.06L31,28.82q3.23,9.69,6.46,19.38c.09.27.19.53.27.8.45,1.4.33,1.59-1.09,1.63Z"/><path class="c" d="M45.94,30.24a17.12,17.12,0,0,1,4.41-1.92A7,7,0,0,1,59,34.63a16,16,0,0,1,.13,1.69q0,6.42,0,12.85c0,1.36-.1,1.42-1.45,1.45-1,0-1.92,0-2.88,0s-1.25-.35-1.21-1.2c0-.34,0-.68,0-1q0-5.24,0-10.48c0-.45,0-.9,0-1.35-.11-4.3-3.36-4.59-6-3.32a2.39,2.39,0,0,0-1.4,2.44c.06,4.17,0,8.34,0,12.51,0,.45,0,.9,0,1.35,0,.8-.39,1.1-1.16,1.08-1.07,0-2.14,0-3.21,0a1,1,0,0,1-1.15-1.12v-1q0-7.44,0-14.88c0-.95,0-1.91-.11-2.87-.15-2.28-.16-2.28,2-2.22h.84C45.21,28.52,45.21,28.52,45.94,30.24Z"/><path class="d" d="M25.08,26.47a19.69,19.69,0,0,1,1.29,3.91c.64,2,1.29,3.95,1.87,5.95.42,1.45.32,1.56-1.13,1.57s-3.05,0-4.57,0c-.77,0-1-.31-.82-1,.25-.87.52-1.73.77-2.59Q23.54,30.65,24.6,27A.64.64,0,0,1,25.08,26.47Z"/></svg>