<svg xmlns="http://www.w3.org/2000/svg" viewBox="0 0 72 72"><defs><style>.a{fill:#9c2d24;}.b{fill:#fefdfd;}.c{fill:#9b3326;}.d{fill:#9c3126;}.e{fill:#9b3025;}.f{fill:#a03729;}</style></defs><path class="a" d="M36.06,71c-7.56,0-15.12-.11-22.68,0a12.42,12.42,0,0,1-12-8.5,10.8,10.8,0,0,1-.58-3.56q0-23.2,0-46.39A12.39,12.39,0,0,1,13.2.45C23.58.56,34,.48,44.36.48c5,0,10,0,15.06,0a12.18,12.18,0,0,1,11.6,9,12.87,12.87,0,0,1,.4,3.43q0,6.66,0,13.33,0,16,0,32a12.39,12.39,0,0,1-1.83,6.91,11.7,11.7,0,0,1-10.19,5.81c-4,.06-8.08,0-12.12,0-3.75,0-7.5,0-11.25,0Z"/><path class="b" d="M39,20a35.21,35.21,0,0,1-1.87,9.45,2.79,2.79,0,0,0,.33,2.62,45.14,45.14,0,0,0,5.06,6.56,2.43,2.43,0,0,0,2.41.84,35.44,35.44,0,0,1,9-.26,11.12,11.12,0,0,1,4.76,1.46,4.4,4.4,0,0,1,2.05,2.67,3.68,3.68,0,0,1-2,4.34,8.72,8.72,0,0,1-4.92.53,19.55,19.55,0,0,1-10-4.38,3.08,3.08,0,0,0-2.7-.71,86.11,86.11,0,0,0-9.87,2.55A2.83,2.83,0,0,0,29.6,47a43,43,0,0,1-6.72,9,13.63,13.63,0,0,1-4.1,2.84,6.55,6.55,0,0,1-3.9.38,4,4,0,0,1-2.56-6.5A14.53,14.53,0,0,1,16.41,49a37.43,37.43,0,0,1,7.05-3.66A4.47,4.47,0,0,0,26,43,126.73,126.73,0,0,0,31.53,30a3.27,3.27,0,0,0-.07-2.67,27.9,27.9,0,0,1-2-7.83,11.14,11.14,0,0,1,.25-4.3,4.22,4.22,0,0,1,3.5-3.39,4.78,4.78,0,0,1,4.66,2.36C38.76,15.73,39.05,17,39,20Z"/><path class="c" d="M45.82,42a22.92,22.92,0,0,1,8.28-.33,3.84,3.84,0,0,1,1.13.37,1.83,1.83,0,0,1,1.05,1.66c0,.8-.49,1.22-1.15,1.55a2.81,2.81,0,0,1-1.5.3C50.62,45.32,48.17,43.82,45.82,42Z"/><path class="d" d="M23.2,48.54A22.53,22.53,0,0,1,17,56c-1.12.8-2.15.79-2.67.16s-.39-1.59.57-2.62a22.15,22.15,0,0,1,5.9-4.15A5.49,5.49,0,0,1,23.2,48.54Z"/><path class="e" d="M33.25,24.91a19.37,19.37,0,0,1-1.38-7.4,4.9,4.9,0,0,1,.58-2.5,1.25,1.25,0,0,1,2.31.05,3.63,3.63,0,0,1,.4,2,34.19,34.19,0,0,1-1.36,7.45C33.75,24.68,33.65,24.82,33.25,24.91Z"/><path class="f" d="M32.39,42l3-7.24c1.65,1.71,2.83,3.57,4.22,5.26A27,27,0,0,1,32.39,42Z"/></svg>