<svg xmlns="http://www.w3.org/2000/svg" viewBox="0 0 72 72"><defs><style>.a{fill:#430a1d;}.b{fill:#db4e62;}.c{fill:#dc4d64;}.d{fill:#440a1e;}</style></defs><path class="a" d="M36,70.05c-7,0-14,0-21,0a17.4,17.4,0,0,1-4.86-.5A12.32,12.32,0,0,1,1.48,57.91c.08-14.88.13-29.76,0-44.65A12.31,12.31,0,0,1,13.53,1.07c15,.1,30,.07,45,0a12.12,12.12,0,0,1,12,11.76c0,1.63,0,3.27,0,4.9q0,19.71,0,39.41a12.59,12.59,0,0,1-2.37,7.94A11.66,11.66,0,0,1,59.47,70c-1,.07-2,.1-3,.1Q46.19,70.07,36,70.05Z"/><path class="b" d="M50.35,34.53c0,4.67,0,9.34,0,14a1.59,1.59,0,0,1-1.08,1.69,17.78,17.78,0,0,1-11.4,1c-3.67-1-6.3-3.07-7.09-8.29a11.91,11.91,0,0,1,1.53-8.6,10.83,10.83,0,0,1,8.83-5.11,17.38,17.38,0,0,1,2.7,0c.88.07,1.06-.34,1.06-1.09,0-2.36,0-4.73,0-7.09,0-1.58.08-1.64,1.59-1.66.84,0,1.69,0,2.53,0,1.13,0,1.21.1,1.23,1.29,0,2,0,4.05,0,6.08v7.77Z"/><path class="c" d="M26.89,36.39c0,4.4,0,8.79,0,13.19,0,1.67,0,1.67-1.7,1.7-.73,0-1.47,0-2.2,0-1.32,0-1.37-.1-1.43-1.48,0-.34,0-.68,0-1V23.61c0-.28,0-.56,0-.84,0-.6.24-1,.89-1h3.72a.67.67,0,0,1,.72.74c0,.45,0,.9,0,1.36v12.5Z"/><path class="d" d="M44.86,40.45c0,1.91,0,3.82,0,5.73,0,1.21-.19,1.36-1.37,1.45-2,.14-3.95.14-5.45-1.54a6.52,6.52,0,0,1-1.43-2.62,10.85,10.85,0,0,1,0-6.31A5.62,5.62,0,0,1,42.08,33c2.82-.05,2.82-.05,2.81,2.74,0,1.57,0,3.15,0,4.72Z"/></svg>