<svg xmlns="http://www.w3.org/2000/svg" viewBox="0 0 72 72"><defs><style>.a{fill:#233015;}.b{fill:#a5ce5f;}.c{fill:#a4ce5f;}.d{fill:#243217;}</style></defs><path class="a" d="M35.94,70.24c-7.45,0-14.89,0-22.33,0a11.79,11.79,0,0,1-10.15-5.4,10.64,10.64,0,0,1-2-6.19c0-7.33,0-14.66,0-22,0-7.73.06-15.45,0-23.18A12.28,12.28,0,0,1,10.7,1.62a12.84,12.84,0,0,1,3-.29c14.83,0,29.66.09,44.49,0A12.33,12.33,0,0,1,70.55,13.62c0,14.83,0,29.66,0,44.49A12,12,0,0,1,61.29,70a12.27,12.27,0,0,1-3,.28H35.94Z"/><path class="b" d="M41.76,50.88H36.68c-.66,0-.82-.51-1-1q-1-2.78-2-5.58c-.56-1.62-.55-1.62-2.24-1.61-2.48,0-5,0-7.44,0a1.45,1.45,0,0,0-1.69,1.21c-.55,2-1.3,3.84-1.87,5.78a1.44,1.44,0,0,1-1.68,1.24c-1.07-.07-2.14,0-3.21,0-.77,0-1-.31-.74-1,.65-1.8,1.26-3.62,1.89-5.42C19.13,37.62,21.5,30.82,23.91,24a10,10,0,0,0,.4-2.15.91.91,0,0,1,1-.9c1.8,0,3.6,0,5.41,0,.74,0,.89.51,1.08,1.07,1.14,3.24,2.3,6.47,3.45,9.7q3,8.36,6,16.71A5.37,5.37,0,0,1,41.76,50.88Z"/><path class="c" d="M50.41,31.75A9,9,0,0,1,54.94,29c.22-.05.43-.14.65-.17,1.93-.32,2.13-.15,2.13,1.79,0,.74,0,1.47,0,2.2.05.89-.37,1.19-1.21,1.17A8,8,0,0,0,52,35.17a2.94,2.94,0,0,0-1.54,2.76c.08,3.66,0,7.33,0,11,0,2,.25,2-2.06,2-.79,0-1.58,0-2.37,0-1.26,0-1.28,0-1.3-1.37,0-2,0-4.06,0-6.09-.06-4.34.14-8.68-.17-13-.09-1.23,0-1.28,1.32-1.33h1.18C49.68,29.07,49.68,29.07,50.41,31.75Z"/><path class="d" d="M27.8,26.27a80.28,80.28,0,0,1,3.94,12H24.87c-.8,0-.75-.51-.58-1,.38-1.23.78-2.46,1.17-3.69C26.21,31.23,27,28.88,27.8,26.27Z"/></svg>