<svg xmlns="http://www.w3.org/2000/svg" viewBox="0 0 72 72"><defs><style>.a{fill:#182347;}.b{fill:#9194c8;}.c{fill:#9092c7;}</style></defs><path class="a" d="M35.79,71.35c-7.27,0-14.55,0-21.82,0a12.12,12.12,0,0,1-7.46-2.29,11.68,11.68,0,0,1-5-9.83q0-18.45,0-36.88c0-2.59.09-5.19,0-7.78A12.06,12.06,0,0,1,13.36,2.38h1q21.64,0,43.3,0a12.44,12.44,0,0,1,9.1,3.35A11.59,11.59,0,0,1,70.5,14.3q0,22.5,0,45A12.1,12.1,0,0,1,58.29,71.36C50.79,71.33,43.29,71.35,35.79,71.35Z"/><path class="b" d="M24,22.09a23.7,23.7,0,0,1,7.56.46,9.3,9.3,0,0,1,6.68,11c-.67,3.62-2.9,5.73-6.16,7a14.2,14.2,0,0,1-5.63,1c-.5,0-1,0-1.52,0-.82,0-1.07.34-1.06,1.11,0,2.48,0,5,0,7.44,0,1.69,0,1.69-1.68,1.71-1,0-1.91,0-2.87,0-.62,0-.94-.29-.93-.92,0-.34,0-.68,0-1q0-12.76,0-25.54c0-.28,0-.56,0-.84.06-1.21.09-1.28,1.23-1.31C21.07,22.06,22.54,22.09,24,22.09Z"/><path class="c" d="M46.73,32.23c.44-.37.88-.72,1.29-1.09a8.29,8.29,0,0,1,4.49-1.74c.77-.12,1.14.25,1.13,1.05,0,1,0,2,0,3,0,.86-.3,1.24-1.18,1.21a7.42,7.42,0,0,0-4.33,1.16,2.59,2.59,0,0,0-1.36,2.48c0,3.71,0,7.43,0,11.14,0,2.25,0,2.25-2.2,2.26-.79,0-1.58,0-2.37,0s-1.12-.38-1.09-1.14c0-.23,0-.45,0-.68-.08-6.24.17-12.49-.17-18.73-.07-1.34,0-1.39,1.42-1.42.67,0,1.35,0,2,0,1.46,0,1.55.12,1.92,1.57C46.37,31.6,46.31,31.91,46.73,32.23Z"/><path class="a" d="M23.88,31.77c0-1.51,0-3,0-4.54,0-.6.18-1,.84-1a16.48,16.48,0,0,1,4,.13c3.14.74,4.28,3,4.08,5.89S30.89,36.79,28,37.16c-4.06.52-4.13.46-4.12-3.53V31.77Z"/></svg>