<svg xmlns="http://www.w3.org/2000/svg" viewBox="0 0 72 72"><defs><style>.a{fill:#010b1c;}.b{fill:#feffff;}.c{fill:#fefefe;}.d{fill:#060d1c;}.e{fill:#060d1e;}</style></defs><path class="a" d="M36,1.59c7.39,0,14.78,0,22.16,0A12.11,12.11,0,0,1,70.51,13.87q0,14.8,0,29.61c0,4.91,0,9.81,0,14.72a11.93,11.93,0,0,1-6.4,10.94,11.69,11.69,0,0,1-6,1.4H32.37l-18.44,0a11.82,11.82,0,0,1-6.47-1.6c-3.75-2.35-5.95-5.68-6-10.17q-.06-22.66,0-45.33A11.87,11.87,0,0,1,13,1.61c3.1-.09,6.2,0,9.3,0,4.57,0,9.14,0,13.71,0Z"/><path class="b" d="M32.75,35.06c.66.26,1.14.43,1.6.64a7.47,7.47,0,0,1,2.32,12.1,10,10,0,0,1-4.32,2.54,18.72,18.72,0,0,1-6,.85l-7.78,0c-1.55,0-1.57,0-1.57-1.6q0-12,0-24c0-1.13,0-2.26,0-3.38,0-.84.26-1.21,1.16-1.2,3.33,0,6.65,0,10,0A12.58,12.58,0,0,1,33,22.11a6.5,6.5,0,0,1,4,5.45,6.24,6.24,0,0,1-2.55,6.38C34,34.3,33.45,34.61,32.75,35.06Z"/><path class="c" d="M47.53,31.8c.65,0,.9-.54,1.26-.86a8.27,8.27,0,0,1,5.09-2c.78,0,1.14.22,1.1,1.05s0,1.91,0,2.86c0,1.2,0,1.23-1.23,1.26a8.78,8.78,0,0,0-4,1,3.47,3.47,0,0,0-2.11,3.48c.12,3.71,0,7.43,0,11.14,0,1.34,0,1.34-1.4,1.35-1.12,0-2.25,0-3.37,0-.65,0-.92-.28-.89-.92s0-1,0-1.51c-.07-6.08.16-12.15-.15-18.23,0-1.08,0-1.09,1.1-1.12q1.35,0,2.7,0c1.26,0,1.32.08,1.58,1.26A2.39,2.39,0,0,0,47.53,31.8Z"/><path class="d" d="M22.52,42.3V38.42c0-.51.12-.92.71-.92,2.13,0,4.29-.25,6.37.41a4.55,4.55,0,0,1,2.69,6.76c-.85,1.55-2.37,2-3.94,2.29a28.36,28.36,0,0,1-4.88.1c-.73,0-1-.36-1-1.05C22.54,44.77,22.52,43.53,22.52,42.3Z"/><path class="e" d="M22.52,29.19c0-1.07,0-2.14,0-3.21,0-.53.19-.92.74-.92,2,0,3.95-.34,5.85.44a3.76,3.76,0,0,1,2.51,4,3.77,3.77,0,0,1-3.17,3.65,25.09,25.09,0,0,1-5.05.26c-.68,0-.87-.38-.87-1,0-1.07,0-2.14,0-3.21Z"/></svg>