<svg xmlns="http://www.w3.org/2000/svg" viewBox="0 0 72 72"><defs><style>.a{fill:#42091d;}.b{fill:#dd4e66;}.c{fill:#d84e66;}</style></defs><path class="a" d="M35.85,1.52c7.44,0,14.88,0,22.33,0,5.06,0,8.65,2.47,11,6.88a12.25,12.25,0,0,1,1.16,5.91q0,13.44,0,26.89c0,5.58,0,11.16,0,16.75A12,12,0,0,1,66,67.63a11,11,0,0,1-6.59,2.74c-1,.06-1.92.1-2.87.1q-20.8,0-41.61,0A20.86,20.86,0,0,1,11,70.24,11.93,11.93,0,0,1,1.3,58.82q0-10.74,0-21.48c0-8,0-16,0-24A11.9,11.9,0,0,1,10.34,1.86,14.29,14.29,0,0,1,14,1.53Z"/><path class="b" d="M48.58,33.21a28.6,28.6,0,0,1-2.81-.61c-3.94-.55-7.8,1.73-7.78,7.07a9.85,9.85,0,0,0,.44,3c1,3.07,4.53,4.79,8,4.1,2.35-.47,2.35-.49,2.36,1.89,0,1.63,0,1.71-1.55,2-3.31.66-6.61.76-9.68-1a9.65,9.65,0,0,1-5.16-8,15.62,15.62,0,0,1,0-4,10.5,10.5,0,0,1,7.17-8.41,13.48,13.48,0,0,1,7.65-.49c1.41.32,1.55.51,1.56,1.95,0,.67,0,1.35-.05,2A1.56,1.56,0,0,1,48.58,33.21Z"/><path class="c" d="M28.33,35.64V48.48c0,.45,0,.9,0,1.35a.79.79,0,0,1-.86.83c-1.3,0-2.59,0-3.89,0a.77.77,0,0,1-.84-.84c0-.34,0-.67,0-1q0-13,0-26c0-.29,0-.57,0-.85,0-.69.24-1.05,1-1,1.19,0,2.37,0,3.55,0,.79,0,1.14.29,1.12,1.08,0,1.07,0,2.14,0,3.21V35.64Z"/></svg>