<svg xmlns="http://www.w3.org/2000/svg" viewBox="0 0 72 72"><defs><style>.a{fill:#061d34;}.b{fill:#5a99d3;}.c{fill:#5c99d2;}</style></defs><path class="a" d="M35.51,70.48H14.37a13,13,0,0,1-6.54-1.37c-4.15-2.28-6.49-5.73-6.51-10.49Q1.23,36,1.3,13.3A11.85,11.85,0,0,1,12.38,1.57c.45,0,.9,0,1.35,0q22.07,0,44.14,0A12.06,12.06,0,0,1,70.29,13.84V32.1c0,8.74,0,17.48,0,26.22A12,12,0,0,1,61.51,70a16.44,16.44,0,0,1-4.69.47Z"/><path class="b" d="M19.23,35.91q0-6.51,0-13c0-1.71,0-1.71,1.67-1.74.9,0,1.8,0,2.7,0s1.13.36,1.09,1.14c0,.45,0,.9,0,1.35V44.26c0,.34,0,.68,0,1,.06,1.15.12,1.25,1.28,1.26,3.05,0,6.09,0,9.13,0,2.26,0,2.26,0,1.78,2.28,0,.11,0,.23,0,.34-.39,1.73-.39,1.7-2.22,1.68-4.4,0-8.8,0-13.19,0-.46,0-.91,0-1.36,0a.77.77,0,0,1-.82-.86c0-.39,0-.79,0-1.18V35.91Z"/><path class="c" d="M45.1,31.34c.79-.64,1.47-1.23,2.21-1.73A8.59,8.59,0,0,1,51,28.48c.69-.1,1.07.21,1.06.94,0,1.07,0,2.14,0,3.21,0,.78-.38,1.11-1.14,1.13a8.46,8.46,0,0,0-3.14.49,3.8,3.8,0,0,0-2.71,4c.13,3.65,0,7.32,0,11,0,1.65-.06,1.69-1.72,1.71-.9,0-1.8,0-2.7,0a1,1,0,0,1-1.07-1c0-.5,0-1,0-1.52-.07-6,.1-11.93-.1-17.9-.05-1.54,0-1.57,1.6-1.61h.51C44.15,28.81,44.15,28.81,45.1,31.34Z"/></svg>