<svg xmlns="http://www.w3.org/2000/svg" viewBox="0 0 72 72"><defs><style>.a{fill:#071c33;}.b{fill:#5b99d3;}.c{fill:#5c99d3;}.d{fill:#5a98d2;}</style></defs><path class="a" d="M1.47,35.92c0-7.16.05-14.32,0-21.48A12.43,12.43,0,0,1,4.54,5.58a11.52,11.52,0,0,1,7.78-4c.68-.06,1.35-.08,2-.09q21.74,0,43.47,0a12.34,12.34,0,0,1,7.77,2.35,11.81,11.81,0,0,1,4.89,9.4c.07,2,0,3.95,0,5.92q0,19.45,0,38.9a11.84,11.84,0,0,1-6.5,11,12.5,12.5,0,0,1-6.2,1.38q-21.73,0-43.47,0h-.68A12,12,0,0,1,1.83,61.42a14.28,14.28,0,0,1-.35-3.85q0-10.83,0-21.65Z"/><path class="b" d="M63.37,26.34l-2.28-.71a11.57,11.57,0,0,0-6.67,0,8,8,0,0,0-5.67,5.57,14.94,14.94,0,0,0,.35,10.25,8.06,8.06,0,0,0,5.22,4.7,12.84,12.84,0,0,0,7.32.17c1.74-.45,1.77-.41,1.78,1.44,0,2.53-.12,2.88-2.6,3.2-4.61.61-9.12.45-13.08-2.51a11.21,11.21,0,0,1-3.86-4.79,19.29,19.29,0,0,1-.51-13.55,12.72,12.72,0,0,1,6.56-7.56c3.88-2.05,7.89-2,12-1.22,1.68.32,1.69.44,1.66,2.14A7.59,7.59,0,0,1,63.37,26.34Z"/><path class="c" d="M8.32,35.94c0-4.11,0-8.23,0-12.34,0-2.42-.33-2.34,2.41-2.33l2,0a.83.83,0,0,1,.94.93c0,.68,0,1.35,0,2V44.37a8.68,8.68,0,0,1,0,1c-.11.91.32,1.15,1.17,1.14,3,0,6,0,9,0,2.41,0,2.41,0,2,2.41-.3,1.72-.47,1.89-2.15,1.9q-6.93,0-13.87,0c-1.48,0-1.5,0-1.51-1.53,0-4.45,0-8.9,0-13.36Z"/><path class="d" d="M33.83,31.18c.59,0,.85-.48,1.22-.79a8.41,8.41,0,0,1,4.32-1.76c.9-.13,1.26.16,1.39,1a11.63,11.63,0,0,1,0,1.18c0,2.76,0,2.77-2.67,3.06a6.49,6.49,0,0,0-2.23.72,3.26,3.26,0,0,0-2,3.36c.14,3.71,0,7.43,0,11.14,0,1.65-.07,1.68-1.73,1.7-.79,0-1.58,0-2.37,0-1.29,0-1.39-.14-1.42-1.5,0-1.07,0-2.14,0-3.21q0-7.68-.07-15.36c0-1.63,0-1.63,1.67-1.75l.84-.06c2.13-.05,2.15,0,2.75,2C33.63,31,33.75,31.09,33.83,31.18Z"/></svg>