<svg xmlns="http://www.w3.org/2000/svg" viewBox="0 0 72 72"><defs><style>.a{fill:#182347;}.b{fill:#9294c8;}</style></defs><path class="a" d="M.63,35.63c0-7.39,0-14.77,0-22.16A11.86,11.86,0,0,1,5.43,3.69a11.22,11.22,0,0,1,7.07-2.4h5.92c12.86,0,25.72,0,38.57,0a12.19,12.19,0,0,1,9.06,3.43,12.59,12.59,0,0,1,3.64,9.49q0,17.76,0,35.53c0,2.76,0,5.52,0,8.29a12,12,0,0,1-6.09,10.63,13.31,13.31,0,0,1-7.16,1.61q-11.25,0-22.5,0H14a16.87,16.87,0,0,1-4.69-.5A11.84,11.84,0,0,1,.7,59c-.14-5.3-.07-10.6-.08-15.9,0-2.48,0-5,0-7.44Z"/><path class="b" d="M44.33,30.88a11.16,11.16,0,0,1,4.72-1.59c3.12-.25,5.83.52,7.62,3.31a8.12,8.12,0,0,1,1.16,3.49A55.65,55.65,0,0,1,58,42q0,4,0,7.94c0,1.53-.07,1.59-1.64,1.61-1,0-2,0-3,0-.8,0-1.14-.3-1.11-1.09s0-1.81,0-2.71c0-2.76,0-5.52,0-8.28,0-.45,0-.91,0-1.36-.15-3.9-2.87-5.53-6.38-3.85A2.24,2.24,0,0,0,44.3,36.6c.09,4.28,0,8.57,0,12.85,0,2.1,0,2.1-2.14,2.11H39.48a.83.83,0,0,1-.93-.94c0-.33,0-.67,0-1q0-14.12,0-28.24c0-.28,0-.56,0-.84.05-1.25.14-1.38,1.34-1.42s2.14,0,3.21,0,1.22.11,1.23,1.31c0,2.76,0,5.52,0,8.29Z"/><path class="b" d="M18.34,36.29a13.06,13.06,0,0,0,.3,3.68c1,4.1,3.83,6.21,7.75,7.09a15.4,15.4,0,0,0,6.85-.28c.33-.07.67-.14,1-.23.57-.15.88.06.9.65s0,.9,0,1.35c0,2.4-.06,2.54-2.41,3a20.28,20.28,0,0,1-11.31-.7A12.75,12.75,0,0,1,12.85,41c-.84-3.93-.88-7.86.91-11.56a14.28,14.28,0,0,1,10.85-8,22.54,22.54,0,0,1,7.9-.05c.22,0,.45.05.66.11,2.28.66,2.49.88,2.19,2.83-.13.82.42,1.91-.22,2.41s-1.52-.36-2.31-.56a15.54,15.54,0,0,0-8,0,9.29,9.29,0,0,0-6.47,8.07C18.29,34.93,18.34,35.61,18.34,36.29Z"/></svg>