<svg xmlns="http://www.w3.org/2000/svg" viewBox="0 0 154.21 78.35"><defs><style>.a,.f{fill:#8fc31f;}.b{fill:#f2931b;}.c{fill:#0b6038;}.d{fill:#f8b62d;}.e{fill:#fff;}.f{font-size:19.71px;font-family:Hegante-Black, Hegante;font-weight:800;}.g{letter-spacing:-0.01em;}.h{fill:#22ac38;}</style></defs><path class="a" d="M53.27,22.08a21.84,21.84,0,0,0,2.84-.71l.71-.18a2.21,2.21,0,0,1-.07.81c-.27.92-.54,1.84-.77,2.77a37.87,37.87,0,0,1-2.18,6.82c-.86,1.85-1.46,3.85-3,5.31C49.69,38,48.6,39,47.49,40.07a24.83,24.83,0,0,1-12.14,6.31,30,30,0,0,1-12.82.15A23.74,23.74,0,0,1,14,43.16c-.57-.38-1.37-.6-1.62-1.39a4.16,4.16,0,0,1,.93.43A15,15,0,0,0,17,44.26a23.7,23.7,0,0,0,6,1.6,40.45,40.45,0,0,0,9.07,0,8.34,8.34,0,0,0,3-.56c.75-.23,1.5-.44,2.24-.69A12.82,12.82,0,0,0,40.43,43a36.4,36.4,0,0,0,3.08-2.11,2.06,2.06,0,0,0,.83-.46,18.21,18.21,0,0,0,4.31-5A33.8,33.8,0,0,0,51.91,28,32.79,32.79,0,0,0,53.27,22.08Z"/><path class="b" d="M18.62,24.73a13.57,13.57,0,0,1,3.31,0c.42,0,.77.13.83.62s.29.68.42,1a20.93,20.93,0,0,0,2,4.19,2.34,2.34,0,0,1,.31,2c-.5,1.7-.83,3.44-1.17,5.18a11.31,11.31,0,0,1-.52,2.82c-.49,0-1-.1-1.36.38-.21.28-.38,0-.54-.11s-.48-.68-.92-.68a2.83,2.83,0,0,1-2.39-.93.46.46,0,0,0-.49-.09,1.27,1.27,0,0,1-1.63-.91,2.08,2.08,0,0,0-1.42-1.37l.16-.43a5.27,5.27,0,0,0,.55-.5c1.57-1.77,3.06-3.6,4.46-5.51a1,1,0,0,0,.05-1.05A35.08,35.08,0,0,1,18.62,24.73ZM24,32.13a1.24,1.24,0,0,0,.62-.21c.25-.14.58-.27.52-.64s-.37-.32-.65-.36a3.08,3.08,0,0,1-1.25-.6,2.21,2.21,0,0,0-1.94-.4c-.21.06-.58.29-.32.51C21.81,31.13,22.56,32.06,24,32.13ZM22.61,28c-.27,0-.6,0-.53.33.1.49.58.63,1,.72s.41-.16.41-.4C23.48,28.08,23,28.12,22.61,28Zm-2-2c0-.26-.15-.47-.44-.5a.29.29,0,0,0-.34.29c0,.31.18.43.44.47A.26.26,0,0,0,20.6,26.05Z"/><path class="b" d="M28.82,24.81A26.58,26.58,0,0,0,33,23.4c.18-.09.33,0,.34.24,1.11,1.8,2.45,3.44,3.66,5.17.59.84.73,1.91,1.34,2.69,1.1,1.39,2.23,2.75,3.29,4.16l0,.16a2,2,0,0,1-1.12.47.94.94,0,0,1-.19,1.55c-.44.17-.51.48-.65.81h-.29a1.46,1.46,0,0,1,0-1,.36.36,0,0,0-.22-.42c-.21-.07-.5,0-.51.16,0,.82-.66,1-1.23,1.26s-1.32,1.07-2.2.43a.21.21,0,0,0-.32.1c-.21.47-.45.77-1,.33-.14-.12-.31.07-.44.19l-.14,0A40.29,40.29,0,0,0,33,35.42a16.93,16.93,0,0,0-1.76-6A37,37,0,0,1,28.82,24.81Zm7.82,5c0-.28-.07-.76-.5-.46a5.53,5.53,0,0,1-3.35.82.31.31,0,0,0-.35.3A1.39,1.39,0,0,0,34.3,32c.5-.21,1-.49,1.46-.71A1.27,1.27,0,0,0,36.64,29.85Zm-3.23-3.5a.75.75,0,0,0-.82.68c-.06.47.32.6.67.6A.67.67,0,0,0,34,27,.51.51,0,0,0,33.41,26.35Zm-2.28-.3a1.15,1.15,0,0,0,.89-.53.26.26,0,0,0,0-.34c-.31-.28-.65-.07-1,0a.42.42,0,0,0-.15,0c-.2.11-.54.14-.48.46S30.73,26,31.13,26.05Zm.94,2.56a.35.35,0,0,0-.4.41.51.51,0,0,0,.59.5c.27,0,.6,0,.54-.42S32.4,28.65,32.07,28.61Z"/><path class="c" d="M12.38,41.77c.25.79,1,1,1.62,1.39a23.74,23.74,0,0,0,8.53,3.37,30,30,0,0,0,12.82-.15,24.83,24.83,0,0,0,12.14-6.31c1.11-1,2.2-2.12,3.31-3.17,1.54-1.46,2.14-3.46,3-5.31A37.87,37.87,0,0,0,56,24.77c.23-.93.5-1.85.77-2.77a2.21,2.21,0,0,0,.07-.81c.88.06,1.25.75,1,1.84a45.84,45.84,0,0,1-2.87,9.59.61.61,0,0,0-.09.49,2.23,2.23,0,0,0-.67.93c-.41.66-.75,1.37-1.17,2-.71,1.12-1.61,2.08-2.4,3.14-.65.59-1.28,1.2-2,1.76a29.33,29.33,0,0,1-11.17,5.69A37.32,37.32,0,0,1,30,47.85a27.64,27.64,0,0,1-3.64.06,31.77,31.77,0,0,1-5.57-.77A21.48,21.48,0,0,1,16,45.59a16.26,16.26,0,0,1-3-1.75,14.37,14.37,0,0,1-2-1.62A28.83,28.83,0,0,1,8,38c-.65-1.73-1.65-3.33-2-5.18.09-.48-.25-.87-.3-1.32a9.71,9.71,0,0,1-.26-4.48c.23,1.13.43,2.27.7,3.39a26.5,26.5,0,0,0,2.81,7.1,40.94,40.94,0,0,0,3.12,3.92.41.41,0,0,0,.32.3Z"/><path class="b" d="M23.49,25c1.18,0,2.35.08,3.52,0a1.15,1.15,0,0,1,1.23.63c.8,1.71,1.54,3.46,2.42,5.13a10,10,0,0,1,1.13,3.1c.32,2,.61,4,.91,6l0,.15a1.31,1.31,0,0,1-.9-.24.52.52,0,0,0-.61-.13,1,1,0,0,1-1.35-.2,1.69,1.69,0,0,0-1.7-.27c-.55.15-1.29.46-1.78-.1a1.37,1.37,0,0,0-1.2-.55c.3-1.49.62-3,.91-4.47.19-1,.67-1.89.18-2.94C25.28,29.07,24.4,27,23.49,25Zm5.41,7.74c.54,0,1.1.07,1.55-.35a.61.61,0,0,0,.15-.85c-.2-.3-.46-.25-.72-.11a2.87,2.87,0,0,1-2.27.29c-.26-.07-.53-.05-.6.26s.16.49.43.57A4.8,4.8,0,0,0,28.9,32.71Zm-1.54-4.55c-.37,0-.72,0-.84.4a.5.5,0,0,0,.35.64,6.49,6.49,0,0,0,1.37.26c.38,0,.52-.22.36-.58A1.37,1.37,0,0,0,27.36,28.16ZM25.3,26.94a.81.81,0,0,0,.76-.71c0-.42-.35-.57-.7-.58a.65.65,0,1,0-.06,1.29Z"/><path class="b" d="M33.88,22.94a10.44,10.44,0,0,0,2.57-1.85c.39-.41.66,0,1,.07a19.49,19.49,0,0,0,2.06,2.57c.41.51.75,1.13,1.41,1.36,1.89.63,3.79,1.21,5.72,1.69l.29.17c0,.27.28.59-.07.8s-.45-.27-.77-.38c0,.44-.38.53-.65.74s-.73.5,0,.77c.37.14.15.31,0,.5-.36.56-.8,1.17-.6,1.83s-.26.95-.71.95a2.46,2.46,0,0,0-1.35.63A1.12,1.12,0,0,0,42.12,34c0,.1-.17.23-.25.34-.35-.07-.51-.36-.7-.62-1-1.37-1.9-2.86-2.82-4.31a58,58,0,0,0-3.41-4.81A4,4,0,0,1,33.88,22.94Zm6.64,2.75c0-.21-.08-.35-.28-.38s-.35.11-.43.31a3.75,3.75,0,0,1-1.28,1.85,1,1,0,0,0-.29.42.57.57,0,0,0,.17.73c.28.18.45-.09.59-.27a7,7,0,0,0,.7-1A7.48,7.48,0,0,0,40.52,25.69ZM37,25.6c.05.17-.1.69.49.51A1,1,0,0,0,38.32,25c0-.4-.16-.76-.58-.84s-.41.34-.56.57A1.39,1.39,0,0,0,37,25.6Zm.35-2.81c0-.23-.14-.29-.36-.3a.69.69,0,0,0-.78.52c-.08.31.17.35.41.37A.62.62,0,0,0,37.36,22.79Z"/><path class="b" d="M10.46,25.2a46.5,46.5,0,0,1,6.19-1,.89.89,0,0,1,.86.44c.12.15.12.38.36.43a16.65,16.65,0,0,0,1.32,3.59,1.78,1.78,0,0,1-.07,1.94c-1.25,1.56-2.53,3.08-3.9,4.53-.1-.07-.2-.21-.3-.21-.68,0-1-.48-1.31-1-.18-.3-.33-.75-.89-.56-.2.07-.3-.2-.41-.36A2.22,2.22,0,0,1,12,31.67C12,31,12,30.36,11.28,30c-.2-.11-.2-.35,0-.41.71-.24.31-.61.14-.95l-.48-1A2.82,2.82,0,0,1,13,27.57c.36.06.67.06.78-.32s-.15-.7-.52-.84a1.62,1.62,0,0,0-1,0,5.18,5.18,0,0,1-2.18.17A4.61,4.61,0,0,1,10.46,25.2Zm6.24,1.58c-.69,0-1.21.62-1,1.15a4.12,4.12,0,0,0,2.52,1.49.51.51,0,0,0,.53-.57A2.93,2.93,0,0,0,16.7,26.78Zm-.4-1.7c-.31,0-.51.19-.51.52s.1.44.39.42a.7.7,0,0,0,.71-.53C16.93,25.14,16.53,25.17,16.3,25.08Z"/><path class="b" d="M37.58,20.27a2.56,2.56,0,0,1,2.11-1.82c2.26-.51,4.47-1.21,6.75-1.6.25,0,.46.33.69.14.55-.45.47,0,.44.3s0,.49-.07.73a8.37,8.37,0,0,0-2,.79,13.47,13.47,0,0,1-1.36.57c-.43.18-1.3.07-1.14.69s.9.07,1.39,0c1.24-.14,2.3-.86,3.53-1,0,.1,0,.23,0,.29a.88.88,0,0,1-.31,1.43c-.23.14-.14,1.3.09,1.43.38.21.32.47.18.81a22.42,22.42,0,0,0-1,2.88l-.58,0c-1.13-.32-2.24-.7-3.38-1a5.31,5.31,0,0,1-3.09-2.1,12.42,12.42,0,0,0-2-2.08A.92.92,0,0,1,37.58,20.27Zm4.16,2.09c0-.84-.21-1.33-.52-1.26-.54.14-.48.68-.6,1.08a.71.71,0,0,0,.24.91.59.59,0,0,0,.62.09C41.82,23,41.69,22.62,41.74,22.36Zm-2.18-2.13c.31,0,.68,0,.63-.37a.82.82,0,0,0-.76-.7.58.58,0,0,0-.61.61C38.84,20.24,39.26,20.2,39.56,20.23Z"/><path class="a" d="M12.06,41.47a40.94,40.94,0,0,1-3.12-3.92,26.5,26.5,0,0,1-2.81-7.1c-.27-1.12-.47-2.26-.7-3.39A.71.71,0,0,1,6,26.18a21.14,21.14,0,0,0,.67,2.32,37.29,37.29,0,0,1,1.24,4.31,2.52,2.52,0,0,0,1,1.7l.17.28A7.23,7.23,0,0,0,10.5,37.3c.34.44.51,1,1.14,1.2l.28.18a.44.44,0,0,0,.45.42l0,.13a2.41,2.41,0,0,0,.89,1.06,43.84,43.84,0,0,0,6.43,4c.44.22,1,.2,1.37.53a2.9,2.9,0,0,0,1.66.51c1.4.13,2.82,0,4.21.19a30.47,30.47,0,0,0,6.88-.29,2,2,0,0,1,1.23.08,8.34,8.34,0,0,1-3,.56,40.45,40.45,0,0,1-9.07,0,23.7,23.7,0,0,1-6-1.6,15,15,0,0,1-3.7-2.06,4.16,4.16,0,0,0-.93-.43h0A.32.32,0,0,0,12.06,41.47Z"/><path class="a" d="M35.07,45.29a2,2,0,0,0-1.23-.08A30.47,30.47,0,0,1,27,45.5c-1.39-.14-2.81-.06-4.21-.19a2.9,2.9,0,0,1-1.66-.51c-.39-.33-.93-.31-1.37-.53a43.84,43.84,0,0,1-6.43-4,2.41,2.41,0,0,1-.89-1.06l.43,0a3.1,3.1,0,0,0,.77.85,44.72,44.72,0,0,0,4,2.59,10.54,10.54,0,0,0,6,2.06l.44,0c.77.75,1.74.27,2.6.37a36,36,0,0,0,5-.07,17.4,17.4,0,0,0,5.24-1,30.31,30.31,0,0,0,5.39-2.88,4.53,4.53,0,0,0,2.09-2.1.47.47,0,0,0,.42-.43c1.07-.37,1.43-1.41,1.88-2.25,1-1.76,2.18-3.36,3-5.18a18.1,18.1,0,0,0,1.3-3.39l0,0a.27.27,0,0,0,.22-.25c.21-1.56.52-3.1.62-4.66s.56-3.3.33-5v-.46a3.16,3.16,0,0,0-.29-2.09.84.84,0,0,1,.6-.12,21.56,21.56,0,0,1,0,6.11c-.23,1.65-.45,3.31-.65,5a15,15,0,0,1-1.91,5.52c-.95,1.69-2,3.33-3,5a12.77,12.77,0,0,1-1.66,2.21c-.56.61-1.34,1-1.69,1.81A36.4,36.4,0,0,1,40.43,43a12.82,12.82,0,0,1-3.12,1.61C36.57,44.85,35.82,45.06,35.07,45.29Z"/><path class="a" d="M43.51,40.88c.35-.8,1.13-1.2,1.69-1.81a12.77,12.77,0,0,0,1.66-2.21c1-1.69,2-3.33,3-5a15,15,0,0,0,1.91-5.52c.2-1.66.42-3.32.65-5a21.56,21.56,0,0,0,0-6.11c.6-.17,1-.07,1.06.66A15.89,15.89,0,0,1,53.18,22s.06.07.09.11A32.79,32.79,0,0,1,51.91,28a33.8,33.8,0,0,1-3.26,7.48,18.21,18.21,0,0,1-4.31,5A2.06,2.06,0,0,1,43.51,40.88Z"/><path class="d" d="M6.77,25.94a1.51,1.51,0,0,1,.88-.2c.42.22.34.73.6,1-.26.4-.87.7-.64,1.24s.8.18,1.22.21a3,3,0,0,0,.22,1.45c.57,1,.21,2.47,1.33,3.3a.5.5,0,0,1,.14.33c.08.46-.08,1.06.71,1,0,0,.1.21.14.32A25.53,25.53,0,0,0,13,37.77a1.38,1.38,0,0,1-.57.73c-.67-.43-.89-1.31-1.65-1.65h0c-.08-.28-.1-.6-.44-.73L10.18,36c-.08-.41-.07-.87-.59-1h0a3.73,3.73,0,0,0-.52-1.21,3.88,3.88,0,0,1-.53-1.21,20.14,20.14,0,0,0-.92-3.38A10.12,10.12,0,0,1,6.77,25.94Z"/><path class="d" d="M23.49,25c.91,2,1.79,4.1,2.74,6.11.49,1.05,0,2-.18,2.94-.29,1.5-.61,3-.91,4.47-.33.92-.17,1.93-.6,2.82h-.73v-.74a11.31,11.31,0,0,0,.52-2.82c.34-1.74.67-3.48,1.17-5.18a2.34,2.34,0,0,0-.31-2,20.93,20.93,0,0,1-2-4.19c-.13-.35-.28-.68-.42-1C23.06,25.32,23.22,25,23.49,25Z"/><path class="d" d="M32.7,39.83c-.3-2-.59-4-.91-6a10,10,0,0,0-1.13-3.1c-.88-1.67-1.62-3.42-2.42-5.13.28-.21.21-.66.58-.81a37,37,0,0,0,2.4,4.64,16.93,16.93,0,0,1,1.76,6,40.29,40.29,0,0,1,.31,4.25A.9.9,0,0,1,32.7,39.83Z"/><path class="d" d="M33.88,22.94a4,4,0,0,0,1.06,1.67,58,58,0,0,1,3.41,4.81c.92,1.45,1.78,2.94,2.82,4.31.19.26.35.55.7.62.05.3.11.59.17.88l-.45.43c-1.06-1.41-2.19-2.77-3.29-4.16-.61-.78-.75-1.85-1.34-2.69-1.21-1.73-2.55-3.37-3.66-5.17C33.88,23.73,33.49,23,33.88,22.94Z"/><path class="d" d="M15.22,35.09c1.37-1.45,2.65-3,3.9-4.53a1.78,1.78,0,0,0,.07-1.94A16.65,16.65,0,0,1,17.87,25a.69.69,0,0,1,.75-.3,35.08,35.08,0,0,0,1.65,4.64,1,1,0,0,1-.05,1.05c-1.4,1.91-2.89,3.74-4.46,5.51a5.27,5.27,0,0,1-.55.5A.87.87,0,0,0,14.6,36Z"/><path class="d" d="M37.58,20.27a.92.92,0,0,0,.33.47,12.42,12.42,0,0,1,2,2.08A5.31,5.31,0,0,0,43,24.92c1.14.26,2.25.64,3.38,1,0,.34.23.59.29.9-1.93-.48-3.83-1.06-5.72-1.69-.66-.23-1-.85-1.41-1.36a19.49,19.49,0,0,1-2.06-2.57C37.49,20.86,37.33,20.53,37.58,20.27Z"/><path class="d" d="M49,16.19a12.75,12.75,0,0,1,2.34-.67,2.21,2.21,0,0,1,.45,1.75c-.82-.23-1.57.21-2.35.28C49.43,17.05,49,16.68,49,16.19Z"/><path class="a" d="M9,34.51a2.52,2.52,0,0,1-1-1.7A37.29,37.29,0,0,0,6.68,28.5,21.14,21.14,0,0,1,6,26.18L6.32,26a3.93,3.93,0,0,0,.27,1.22,24.36,24.36,0,0,1,1.58,5.13,2.74,2.74,0,0,0,.48,1.23A1.26,1.26,0,0,1,9,34.51Z"/><path class="d" d="M9,34.51a1.26,1.26,0,0,0-.31-.89,2.74,2.74,0,0,1-.48-1.23,24.36,24.36,0,0,0-1.58-5.13A3.93,3.93,0,0,1,6.32,26a.49.49,0,0,1,.45-.1,10.12,10.12,0,0,0,.85,3.19,20.14,20.14,0,0,1,.92,3.38,3.88,3.88,0,0,0,.53,1.21,3.73,3.73,0,0,1,.52,1.21l-.46-.14Z"/><path class="d" d="M8.25,26.78c-.26-.31-.18-.82-.6-1a15.84,15.84,0,0,1,2.81-.54A4.61,4.61,0,0,0,10,26.61,6,6,0,0,1,8.25,26.78Z"/><path class="d" d="M49,16.19c0,.49.44.86.44,1.36L47.5,18c0-.24.06-.48.07-.73s.11-.75-.44-.3c-.23.19-.44-.14-.69-.14Z"/><path class="d" d="M51.78,17.27a2.21,2.21,0,0,0-.45-1.75c.1-.19.29-.14.45-.16a3.16,3.16,0,0,1,.29,2.09Z"/><path class="d" d="M23.8,40.57c0,.24,0,.49,0,.74a1,1,0,0,1-.15.59c-.31,0-.49.7-.85.2a.91.91,0,0,0-.82-.35c-1.33-.07-2.67-.09-3.68-1.18a1,1,0,0,0-.68-.23,2.38,2.38,0,0,1-1.84-1c-.47-.67-1.18-1.1-1.62-1.78l.88-.74a2.08,2.08,0,0,1,1.42,1.37,1.27,1.27,0,0,0,1.63.91.46.46,0,0,1,.49.09,2.83,2.83,0,0,0,2.39.93c.44,0,.65.41.92.68s.33.39.54.11C22.8,40.47,23.31,40.59,23.8,40.57Z"/><path class="e" d="M24,32.13c-1.41-.07-2.16-1-3-1.7-.26-.22.11-.45.32-.51a2.21,2.21,0,0,1,1.94.4,3.08,3.08,0,0,0,1.25.6c.28,0,.59,0,.65.36s-.27.5-.52.64A1.24,1.24,0,0,1,24,32.13Z"/><path class="d" d="M15.05,36.86l-.88.74a2,2,0,0,0-.75.87.48.48,0,0,0-.29.46l-.3.27-.43,0,0-.13c0-.15,0-.31,0-.46l0-.14a1.38,1.38,0,0,0,.57-.73c.45-.22.59-.7.88-1.05.32-.17.34-.63.72-.75a.87.87,0,0,1,.61.46C15.16,36.57,15.11,36.72,15.05,36.86Z"/><path class="e" d="M22.61,28c.37.1.87.06.88.65,0,.24-.13.46-.41.4s-.9-.23-1-.72C22,28,22.34,28,22.61,28Z"/><path class="e" d="M20.6,26.05a.26.26,0,0,1-.34.26c-.26,0-.46-.16-.44-.47a.29.29,0,0,1,.34-.29C20.45,25.58,20.56,25.79,20.6,26.05Z"/><path class="d" d="M39.36,38.65h.29c.39.24,1.4.07,1.54-.35a3.1,3.1,0,0,1,1.28-1.44,2,2,0,0,1,.59.6,8.21,8.21,0,0,1-1.38,1.69,6.22,6.22,0,0,1-1.93.84,5.53,5.53,0,0,0-1.84.9c-.53.41-1,1.09-1.87.63a.28.28,0,0,0-.21,0c-.61.63-1.35.44-2.08.33a2.27,2.27,0,0,1-.17-1.18,7.08,7.08,0,0,0,1.88-.17,16.53,16.53,0,0,1,2.68-1.09C38.59,39.38,39.29,39.42,39.36,38.65Z"/><path class="d" d="M39.36,38.65c-.07.77-.77.73-1.22.81a16.53,16.53,0,0,0-2.68,1.09,7.08,7.08,0,0,1-1.88.17,2,2,0,0,1-.15-1c.13-.12.3-.31.44-.19.53.44.77.14,1-.33a.21.21,0,0,1,.32-.1c.88.64,1.51-.12,2.2-.43s1.2-.44,1.23-1.26c0-.18.3-.23.51-.16a.36.36,0,0,1,.22.42A1.46,1.46,0,0,0,39.36,38.65Z"/><path class="e" d="M36.64,29.85a1.27,1.27,0,0,1-.88,1.41c-.5.22-1,.5-1.46.71a1.39,1.39,0,0,1-1.86-1.46.31.31,0,0,1,.35-.3,5.53,5.53,0,0,0,3.35-.82C36.57,29.09,36.62,29.57,36.64,29.85Z"/><path class="d" d="M42.47,36.86a3.1,3.1,0,0,0-1.28,1.44c-.14.42-1.15.59-1.54.35.14-.33.21-.64.65-.81a.94.94,0,0,0,.19-1.55,2,2,0,0,0,1.12-.47C42.1,36,42.23,36.48,42.47,36.86Z"/><path class="d" d="M33.43,39.69a2,2,0,0,0,.15,1,2.27,2.27,0,0,0,.17,1.18A16.73,16.73,0,0,0,34,44.25c-.1.17-.21.31-.42.14a11.9,11.9,0,0,0-.47-1.75,2.38,2.38,0,0,0-.28-1L32.68,40l0-.15a.9.9,0,0,0,.59-.16Z"/><path class="d" d="M42.47,36.86c-.24-.38-.37-.86-.86-1,0-.06,0-.11,0-.16l.45-.43c.69.36.84,1.22,1.46,1.64l.28.45a1.23,1.23,0,0,0,.6.89l.29.43a.47.47,0,0,1-.42.43l-.14-.17c-.4-.44-.57-1.06-1-1.44A2,2,0,0,0,42.47,36.86Z"/><path class="e" d="M33.41,26.35A.51.51,0,0,1,34,27a.67.67,0,0,1-.72.68c-.35,0-.73-.13-.67-.6A.75.75,0,0,1,33.41,26.35Z"/><path class="e" d="M31.13,26.05c-.4,0-.69-.09-.74-.4s.28-.35.48-.46a.42.42,0,0,1,.15,0c.33,0,.67-.25,1,0a.26.26,0,0,1,0,.34A1.15,1.15,0,0,1,31.13,26.05Z"/><path class="e" d="M32.07,28.61c.33,0,.67.11.73.49s-.27.41-.54.42a.51.51,0,0,1-.59-.5A.35.35,0,0,1,32.07,28.61Z"/><path class="a" d="M12.06,41.47a.32.32,0,0,1,.32.3A.41.41,0,0,1,12.06,41.47Z"/><path class="d" d="M32.68,40c.06.54.11,1.08.16,1.62a2.78,2.78,0,0,1-1.6.43,9.27,9.27,0,0,0-3.5.32c-1.09.25-2.16,0-3.2.29V41.31c.43-.89.27-1.9.6-2.82a1.37,1.37,0,0,1,1.2.55c.49.56,1.23.25,1.78.1a1.69,1.69,0,0,1,1.7.27,1,1,0,0,0,1.35.2.52.52,0,0,1,.61.13A1.31,1.31,0,0,0,32.68,40Z"/><path class="e" d="M28.9,32.71a4.8,4.8,0,0,1-1.46-.19c-.27-.08-.52-.23-.43-.57s.34-.33.6-.26a2.87,2.87,0,0,0,2.27-.29c.26-.14.52-.19.72.11a.61.61,0,0,1-.15.85C30,32.78,29.44,32.68,28.9,32.71Z"/><path class="e" d="M27.36,28.16a1.37,1.37,0,0,1,1.24.72c.16.36,0,.61-.36.58a6.49,6.49,0,0,1-1.37-.26.5.5,0,0,1-.35-.64C26.64,28.19,27,28.17,27.36,28.16Z"/><path class="e" d="M25.3,26.94a.65.65,0,1,1,.06-1.29c.35,0,.73.16.7.58A.81.81,0,0,1,25.3,26.94Z"/><path class="d" d="M43.5,36.87c-.62-.42-.77-1.28-1.46-1.64-.06-.29-.12-.58-.17-.88.08-.11.26-.24.25-.34a1.12,1.12,0,0,1,.66-1.22,2.46,2.46,0,0,1,1.35-.63c.45,0,.94-.18.71-.95s.24-1.27.6-1.83c.12-.19.34-.36,0-.5-.72-.27-.25-.56,0-.77s.64-.3.65-.74c.32.11.4.6.77.38s0-.53.07-.81l.75.27a18.54,18.54,0,0,1-.87,3.35,2.06,2.06,0,0,1-.22.91,18.55,18.55,0,0,0-1.44,2.17C44.55,34.7,44,35.79,43.5,36.87Z"/><path class="d" d="M47.66,27.21l-.75-.27-.29-.16c-.06-.31-.32-.56-.29-.9l.58,0a3.52,3.52,0,0,0,1.34.43l1,.44c.46.1.83.44,1.32.47a.79.79,0,0,1,.31.55l0,0h-.72a5.38,5.38,0,0,0-1.63-.43A1.68,1.68,0,0,0,47.66,27.21Z"/><path class="e" d="M40.52,25.69a7.48,7.48,0,0,1-.82,1.62,7,7,0,0,1-.7,1c-.14.18-.31.45-.59.27a.57.57,0,0,1-.17-.73,1,1,0,0,1,.29-.42,3.75,3.75,0,0,0,1.28-1.85c.08-.2.19-.34.43-.31S40.52,25.48,40.52,25.69Z"/><path class="e" d="M37,25.6a1.39,1.39,0,0,1,.17-.84c.15-.23.18-.64.56-.57s.55.44.58.84a1,1,0,0,1-.82,1.08C36.91,26.29,37.06,25.77,37,25.6Z"/><path class="e" d="M37.36,22.79a.62.62,0,0,1-.73.59c-.24,0-.49-.06-.41-.37a.69.69,0,0,1,.78-.52C37.22,22.5,37.38,22.56,37.36,22.79Z"/><path class="d" d="M14.6,36c-.38.12-.4.58-.72.75-.24-.13-.54-.23-.57-.54C13.2,35,12.18,34.5,11.56,33.7s-1.37-1.39-.87-2.5a.44.44,0,0,0-.12-.54A3.79,3.79,0,0,1,9.44,28l1.47-.37.48,1c.17.34.57.71-.14.95-.17.06-.17.3,0,.41.69.36.75,1,.76,1.67A2.22,2.22,0,0,0,12.31,33c.11.16.21.43.41.36.56-.19.71.26.89.56.31.53.63,1,1.31,1,.1,0,.2.14.3.21Z"/><path class="e" d="M10.91,27.65,9.44,28l-.61.21c-.42,0-1,.27-1.22-.21s.38-.84.64-1.24A6,6,0,0,0,10,26.61a5.18,5.18,0,0,0,2.18-.17,1.62,1.62,0,0,1,1,0c.37.14.65.4.52.84s-.42.38-.78.32A2.82,2.82,0,0,0,10.91,27.65Z"/><path class="e" d="M16.7,26.78a2.93,2.93,0,0,1,2.07,2.07.51.51,0,0,1-.53.57,4.12,4.12,0,0,1-2.52-1.49C15.49,27.4,16,26.78,16.7,26.78Z"/><path class="e" d="M16.3,25.08c.23.09.63.06.59.41a.7.7,0,0,1-.71.53c-.29,0-.4-.16-.39-.42S16,25.12,16.3,25.08Z"/><path class="e" d="M51.78,17.27l.29.18c0,.15,0,.3,0,.46l-.31.41a1.75,1.75,0,0,0-.71.61l-1,.19c-.69,0-1.37-.32-2.07-.05-1.23.15-2.29.87-3.53,1-.49.06-1.26.47-1.39,0s.71-.51,1.14-.69a13.47,13.47,0,0,0,1.36-.57,8.37,8.37,0,0,1,2-.79l1.93-.47C50.21,17.48,51,17,51.78,17.27Z"/><path class="d" d="M48,19.07c.7-.27,1.38.08,2.07.05a.75.75,0,0,1-.23,1,1.47,1.47,0,0,0-.49,1.49c.07.51.16,1.25-.47,1.61a.91.91,0,0,0-.46,1.23,2.38,2.38,0,0,1-.12,1.92,3.52,3.52,0,0,1-1.34-.43,22.42,22.42,0,0,1,1-2.88c.14-.34.2-.6-.18-.81-.23-.13-.32-1.29-.09-1.43A.88.88,0,0,0,48,19.36C47.93,19.3,48,19.17,48,19.07Z"/><path class="e" d="M41.74,22.36c-.05.26.08.63-.26.82a.59.59,0,0,1-.62-.09.71.71,0,0,1-.24-.91c.12-.4.06-.94.6-1.08C41.53,21,41.74,21.52,41.74,22.36Z"/><path class="e" d="M39.56,20.23c-.3,0-.72,0-.74-.46a.58.58,0,0,1,.61-.61.82.82,0,0,1,.76.7C40.24,20.23,39.87,20.21,39.56,20.23Z"/><path class="a" d="M9.13,34.79l.46.14h0a1.26,1.26,0,0,0,.59,1l.15.16c.07.29.07.62.44.73h0c.09.66.72,1,.86,1.65-.63-.16-.8-.76-1.14-1.2A7.23,7.23,0,0,1,9.13,34.79Z"/><path class="d" d="M11.64,38.5c-.14-.62-.77-1-.86-1.65.76.34,1,1.22,1.65,1.65,0,0,0,.09,0,.14l-.47,0Z"/><path class="a" d="M11.92,38.68l.47,0c0,.15,0,.31,0,.46A.44.44,0,0,1,11.92,38.68Z"/><path class="d" d="M44.11,38.9l.14.17a4.53,4.53,0,0,1-2.09,2.1,30.31,30.31,0,0,1-5.39,2.88,17.4,17.4,0,0,1-5.24,1,36,36,0,0,1-5,.07c-.86-.1-1.83.38-2.6-.37l.14-.32a3.15,3.15,0,0,0,1,.17,65,65,0,0,0,8.49-.18c.21.17.32,0,.42-.14a9.43,9.43,0,0,0,3.72-1.06A21,21,0,0,0,44.11,38.9Z"/><path class="d" d="M50.17,27.81h.72a18.1,18.1,0,0,1-1.3,3.39c-.86,1.82-2.08,3.42-3,5.18-.45.84-.81,1.88-1.88,2.25l-.29-.43a1.61,1.61,0,0,1,.3-.41c1.25-.88,1.7-2.29,2.41-3.53a21.25,21.25,0,0,1,1.61-2.63A7,7,0,0,0,50.17,27.81Z"/><path class="d" d="M12.83,39.2l.3-.27c.09.11.18.23.28.33a31.63,31.63,0,0,0,4.76,3.19,5.75,5.75,0,0,0,1.86,1,17.39,17.39,0,0,0,3.48.8v.44a10.54,10.54,0,0,1-6-2.06,44.72,44.72,0,0,1-4-2.59A3.1,3.1,0,0,1,12.83,39.2Z"/><path class="d" d="M51.77,18.32l.31-.41c.23,1.68-.23,3.32-.33,5s-.41,3.1-.62,4.66a.27.27,0,0,1-.22.25.79.79,0,0,0-.31-.55c.25-1.07.37-2.16.52-3.24A54.13,54.13,0,0,0,51.77,18.32Z"/><path class="d" d="M23.51,44.7v-.44l.12-1,0-1.33a1,1,0,0,0,.15-.59h.73v1.33a.83.83,0,0,0-.14.59l-.31,1.17-.14.32Z"/><path class="d" d="M8.83,28.23,9.44,28a3.79,3.79,0,0,0,1.13,2.64.44.44,0,0,1,.12.54c-.5,1.11.3,1.78.87,2.5S13.2,35,13.31,36.18c0,.31.33.41.57.54-.29.35-.43.83-.88,1.05a25.53,25.53,0,0,1-1.63-3.11c0-.11-.09-.32-.14-.32-.79,0-.63-.57-.71-1a.5.5,0,0,0-.14-.33c-1.12-.83-.76-2.26-1.33-3.3A3,3,0,0,1,8.83,28.23Z"/><path class="d" d="M10.18,36a1.26,1.26,0,0,1-.59-1C10.11,35.09,10.1,35.55,10.18,36Z"/><path class="d" d="M10.77,36.85c-.37-.11-.37-.44-.44-.73C10.67,36.25,10.69,36.57,10.77,36.85Z"/><path class="d" d="M23.66,41.9l0,1.33c-1-.14-2.18.25-3-.75-.05-.06-.19,0-.28,0A3,3,0,0,1,19,42.09,35,35,0,0,1,13.69,39a.76.76,0,0,1-.27-.51,2,2,0,0,1,.75-.87c.44.68,1.15,1.11,1.62,1.78a2.38,2.38,0,0,0,1.84,1,1,1,0,0,1,.68.23c1,1.09,2.35,1.11,3.68,1.18a.91.91,0,0,1,.82.35C23.17,42.6,23.35,41.88,23.66,41.9Z"/><path class="d" d="M13.42,38.47a.76.76,0,0,0,.27.51A35,35,0,0,0,19,42.09a3,3,0,0,0,1.34.35c.09,0,.23,0,.28,0,.81,1,2,.61,3,.75l-.12,1a17.39,17.39,0,0,1-3.48-.8,5.75,5.75,0,0,1-1.86-1,31.63,31.63,0,0,1-4.76-3.19c-.1-.1-.19-.22-.28-.33A.48.48,0,0,1,13.42,38.47Z"/><path class="d" d="M44.11,38.9a21,21,0,0,1-6.38,4.29A9.43,9.43,0,0,1,34,44.25a16.73,16.73,0,0,1-.26-2.35c.73.11,1.47.3,2.08-.33a.28.28,0,0,1,.21,0c.85.46,1.34-.22,1.87-.63a5.53,5.53,0,0,1,1.84-.9,6.22,6.22,0,0,0,1.93-.84,8.21,8.21,0,0,0,1.38-1.69C43.54,37.84,43.71,38.46,44.11,38.9Z"/><path class="d" d="M24.09,44.4l.31-1.17A28.83,28.83,0,0,1,27.34,43a5.69,5.69,0,0,1,3.57.4c.12.07.27.07.32-.06.39-.89,1.18-.71,1.89-.74a11.9,11.9,0,0,1,.47,1.75,65,65,0,0,1-8.49.18A3.15,3.15,0,0,1,24.09,44.4Z"/><path class="d" d="M33.12,42.64c-.71,0-1.5-.15-1.89.74-.05.13-.2.13-.32.06a5.69,5.69,0,0,0-3.57-.4,28.83,28.83,0,0,0-2.94.19.83.83,0,0,1,.14-.59c1-.3,2.11,0,3.2-.29a9.27,9.27,0,0,1,3.5-.32,2.78,2.78,0,0,0,1.6-.43A2.38,2.38,0,0,1,33.12,42.64Z"/><path class="d" d="M50.17,27.81a7,7,0,0,1-1.47,3.83,21.25,21.25,0,0,0-1.61,2.63c-.71,1.24-1.16,2.65-2.41,3.53a1.61,1.61,0,0,0-.3.41,1.23,1.23,0,0,1-.6-.89,2.11,2.11,0,0,0,.79-.62c.54-.87,1.13-1.72,1.75-2.54A2.45,2.45,0,0,0,46.88,33a1.56,1.56,0,0,1,.58-1.07A1.42,1.42,0,0,0,48,30.36c-.09-.35-.34-.83,0-1.12a1.83,1.83,0,0,0,.54-1.86A5.38,5.38,0,0,1,50.17,27.81Z"/><path class="d" d="M48.54,27.38A1.83,1.83,0,0,1,48,29.24c-.35.29-.1.77,0,1.12a1.42,1.42,0,0,1-.53,1.56A1.56,1.56,0,0,0,46.88,33a2.45,2.45,0,0,1-.56,1.17c-.62.82-1.21,1.67-1.75,2.54a2.11,2.11,0,0,1-.79.62l-.28-.45c.54-1.08,1-2.17,1.63-3.23a18.55,18.55,0,0,1,1.44-2.17,2.06,2.06,0,0,0,.22-.91,18.54,18.54,0,0,0,.87-3.35A1.68,1.68,0,0,1,48.54,27.38Z"/><path class="d" d="M48.25,26.34a2.38,2.38,0,0,0,.12-1.92.91.91,0,0,1,.46-1.23c.63-.36.54-1.1.47-1.61a1.47,1.47,0,0,1,.49-1.49.75.75,0,0,0,.23-1l1-.19a2.46,2.46,0,0,1-.23,1.36c-.41.71-.2,1.6-.71,2.34-.22.32.11,1-.34,1.47-.06,0-.05.27,0,.35.51.65.18,1.15-.25,1.66a1.1,1.1,0,0,0-.26.67Z"/><path class="d" d="M49.28,26.78a1.1,1.1,0,0,1,.26-.67c.43-.51.76-1,.25-1.66-.06-.08-.07-.3,0-.35.45-.45.12-1.15.34-1.47.51-.74.3-1.63.71-2.34a2.46,2.46,0,0,0,.23-1.36,1.75,1.75,0,0,1,.71-.61A54.13,54.13,0,0,1,51.12,24c-.15,1.08-.27,2.17-.52,3.24C50.11,27.22,49.74,26.88,49.28,26.78Z"/><text class="f" transform="translate(60.24 43.17)">Me<tspan class="g" x="37.85" y="0">l</tspan><tspan x="46.62" y="0">on</tspan></text><path class="h" d="M16.35,59.65a.35.35,0,0,1-.16-.32.37.37,0,0,1,.11-.28.34.34,0,0,1,.27-.12.37.37,0,0,1,.18,0,3.39,3.39,0,0,0,.63.22,3.55,3.55,0,0,0,.68.07c.7,0,1.05-.23,1.05-.68a.33.33,0,0,0-.23-.32,4,4,0,0,0-.81-.26,7.07,7.07,0,0,1-.93-.28,1.46,1.46,0,0,1-.66-.46,1.16,1.16,0,0,1-.25-.76,1.36,1.36,0,0,1,.5-1.11A2.07,2.07,0,0,1,18.11,55a3.88,3.88,0,0,1,1.4.24.34.34,0,0,1,.21.14.4.4,0,0,1,.08.23.39.39,0,0,1-.12.28.38.38,0,0,1-.28.12l-.12,0a3.71,3.71,0,0,0-1.1-.18,1.46,1.46,0,0,0-.8.19.54.54,0,0,0-.3.48.45.45,0,0,0,.26.41,5.78,5.78,0,0,0,.84.26,9.36,9.36,0,0,1,.92.28,1.39,1.39,0,0,1,.64.47,1.25,1.25,0,0,1,.24.78,1.27,1.27,0,0,1-.5,1,2.11,2.11,0,0,1-1.37.41A3.68,3.68,0,0,1,16.35,59.65Z"/><path class="h" d="M21.27,59.91a.42.42,0,0,1-.13-.32V53.35a.44.44,0,0,1,.13-.32.4.4,0,0,1,.31-.13.44.44,0,0,1,.45.45v2.48a3,3,0,0,1,.82-.64,2,2,0,0,1,1-.22,1.71,1.71,0,0,1,.93.25,1.59,1.59,0,0,1,.6.68,2.32,2.32,0,0,1,.2,1v2.73a.42.42,0,0,1-.13.32.48.48,0,0,1-.32.13.44.44,0,0,1-.31-.13.42.42,0,0,1-.13-.32V57q0-1.17-1-1.17a1.54,1.54,0,0,0-.83.23,3.13,3.13,0,0,0-.74.69v2.88a.42.42,0,0,1-.13.32.48.48,0,0,1-.32.13A.44.44,0,0,1,21.27,59.91Z"/><path class="h" d="M27.48,59.91a1.28,1.28,0,0,1-.59-.51,1.41,1.41,0,0,1-.21-.77,1.34,1.34,0,0,1,.58-1.16,2.86,2.86,0,0,1,1.64-.41h1.16V57a1.16,1.16,0,0,0-.31-.9,1.37,1.37,0,0,0-1-.29,4,4,0,0,0-.63,0c-.18,0-.4.1-.65.18l-.13,0a.32.32,0,0,1-.25-.11.33.33,0,0,1-.11-.26.37.37,0,0,1,.26-.38A4.18,4.18,0,0,1,28.93,55a2.29,2.29,0,0,1,1.14.26,1.82,1.82,0,0,1,.66.69,2,2,0,0,1,.22.95v2.72a.42.42,0,0,1-.13.32.48.48,0,0,1-.32.13.44.44,0,0,1-.31-.13.42.42,0,0,1-.13-.32v-.23a2.39,2.39,0,0,1-1.8.73A1.72,1.72,0,0,1,27.48,59.91Zm1.1-.61a1.8,1.8,0,0,0,.81-.2,2.12,2.12,0,0,0,.67-.52v-.79H29c-1,0-1.45.25-1.45.75S27.91,59.3,28.58,59.3Z"/><path class="h" d="M32.54,59.91a.42.42,0,0,1-.13-.32V55.47a.42.42,0,0,1,.13-.32.41.41,0,0,1,.31-.14.45.45,0,0,1,.32.14.42.42,0,0,1,.13.32v.38A1.87,1.87,0,0,1,34.8,55h.05a.43.43,0,0,1,.31.12.47.47,0,0,1,.12.32.38.38,0,0,1-.13.3.44.44,0,0,1-.32.12h0a1.59,1.59,0,0,0-.83.22,1.91,1.91,0,0,0-.65.62v2.92a.42.42,0,0,1-.13.32.48.48,0,0,1-.32.13A.44.44,0,0,1,32.54,59.91Z"/><path class="h" d="M36.31,59.41a2.58,2.58,0,0,1-.66-1.88,3.27,3.27,0,0,1,.25-1.27,2.11,2.11,0,0,1,.79-.95,2.26,2.26,0,0,1,3.29.86,2.65,2.65,0,0,1,.28,1.23.4.4,0,0,1-.13.31.41.41,0,0,1-.32.13H36.55a1.56,1.56,0,0,0,.52,1,1.73,1.73,0,0,0,1.16.36,3.49,3.49,0,0,0,.69-.07,3.28,3.28,0,0,0,.61-.23.29.29,0,0,1,.17,0A.43.43,0,0,1,40,59a.38.38,0,0,1,.12.28.42.42,0,0,1-.26.36,3.24,3.24,0,0,1-.77.32,3.41,3.41,0,0,1-.92.11A2.45,2.45,0,0,1,36.31,59.41Zm2.94-2.3c.08,0,.12,0,.11-.12a1.21,1.21,0,0,0-.23-.65,1.35,1.35,0,0,0-.52-.46,1.51,1.51,0,0,0-.65-.15,1.59,1.59,0,0,0-.65.14,1.25,1.25,0,0,0-.53.49,1.62,1.62,0,0,0-.23.75Z"/><path class="h" d="M44.76,59.91a1.25,1.25,0,0,1-.58-.51,1.41,1.41,0,0,1-.21-.77,1.34,1.34,0,0,1,.58-1.16,2.84,2.84,0,0,1,1.64-.41h1.15V57a1.19,1.19,0,0,0-.3-.9,1.4,1.4,0,0,0-1-.29,3.8,3.8,0,0,0-.62,0,6.81,6.81,0,0,0-.66.18l-.12,0A.34.34,0,0,1,44.4,56a.36.36,0,0,1-.11-.26.39.39,0,0,1,.26-.38A4.23,4.23,0,0,1,46.22,55a2.22,2.22,0,0,1,1.13.26,1.77,1.77,0,0,1,.67.69,2,2,0,0,1,.22.95v2.72a.43.43,0,0,1-.14.32.46.46,0,0,1-.31.13.44.44,0,0,1-.45-.45v-.23a2.39,2.39,0,0,1-1.8.73A1.78,1.78,0,0,1,44.76,59.91Zm1.11-.61a1.72,1.72,0,0,0,.8-.2,2,2,0,0,0,.67-.52v-.79h-1q-1.44,0-1.44.75C44.86,59,45.2,59.3,45.87,59.3Z"/><path class="h" d="M52.71,62.12a.44.44,0,0,1-.13-.32V55.46a.42.42,0,0,1,.13-.32A.46.46,0,0,1,53,55a.48.48,0,0,1,.32.13.43.43,0,0,1,.14.32v.23a2.27,2.27,0,0,1,2.77-.43,2.27,2.27,0,0,1,.88.91,2.87,2.87,0,0,1,.32,1.36,2.65,2.65,0,0,1-.33,1.35,2.3,2.3,0,0,1-.86.89,2.22,2.22,0,0,1-1.15.32,2.19,2.19,0,0,1-1.63-.73V61.8a.46.46,0,0,1-.13.32.44.44,0,0,1-.33.13A.42.42,0,0,1,52.71,62.12Zm1.46-3.06a1.93,1.93,0,0,0,.82.19,1.48,1.48,0,0,0,1.15-.46,2.12,2.12,0,0,0,0-2.53A1.48,1.48,0,0,0,55,55.8a1.93,1.93,0,0,0-.82.19,2.51,2.51,0,0,0-.69.52v2A2.51,2.51,0,0,0,54.17,59.06Z"/><path class="h" d="M58.58,53.54a.49.49,0,0,1,.15-.35.45.45,0,0,1,.35-.15h.05a.49.49,0,0,1,.36.15.49.49,0,0,1,.15.35v0a.49.49,0,0,1-.15.35.49.49,0,0,1-.36.15h-.05a.45.45,0,0,1-.35-.15.49.49,0,0,1-.15-.35Zm.2,6.37a.46.46,0,0,1-.13-.32V55.47a.46.46,0,0,1,.13-.32A.43.43,0,0,1,59.1,55a.48.48,0,0,1,.32.13.44.44,0,0,1,.13.33v4.12a.43.43,0,0,1-.14.32.46.46,0,0,1-.31.13A.46.46,0,0,1,58.78,59.91Z"/><path class="h" d="M61.41,59.41a2.58,2.58,0,0,1-.66-1.88A3.27,3.27,0,0,1,61,56.26a2.17,2.17,0,0,1,.79-.95,2.55,2.55,0,0,1,2.51,0,2.14,2.14,0,0,1,.78.88,2.65,2.65,0,0,1,.28,1.23.43.43,0,0,1-.12.31.44.44,0,0,1-.33.13H61.66a1.55,1.55,0,0,0,.51,1,1.75,1.75,0,0,0,1.16.36,3.49,3.49,0,0,0,.69-.07,3,3,0,0,0,.61-.23.31.31,0,0,1,.17,0,.41.41,0,0,1,.28.11.38.38,0,0,1,.12.28.42.42,0,0,1-.26.36,3.24,3.24,0,0,1-.77.32,3.41,3.41,0,0,1-.92.11A2.45,2.45,0,0,1,61.41,59.41Zm2.94-2.3a.11.11,0,0,0,.12-.12,1.4,1.4,0,0,0-.23-.65,1.45,1.45,0,0,0-.53-.46,1.47,1.47,0,0,0-.65-.15,1.55,1.55,0,0,0-.64.14,1.22,1.22,0,0,0-.54.49,1.61,1.61,0,0,0-.22.75Z"/><path class="h" d="M67.5,59.78a2.31,2.31,0,0,1-1-.91,2.51,2.51,0,0,1-.35-1.34,2.57,2.57,0,0,1,.36-1.37,2.43,2.43,0,0,1,.92-.88,2.69,2.69,0,0,1,1.3-.31,2.77,2.77,0,0,1,.85.12,3.66,3.66,0,0,1,.73.34.39.39,0,0,1,.19.34.37.37,0,0,1-.12.27.32.32,0,0,1-.26.13.48.48,0,0,1-.21-.06,2.66,2.66,0,0,0-.56-.24,1.69,1.69,0,0,0-.54-.07,1.78,1.78,0,0,0-1.29.47,1.88,1.88,0,0,0,0,2.51,1.78,1.78,0,0,0,1.29.47,1.69,1.69,0,0,0,.54-.07,2.66,2.66,0,0,0,.56-.24.48.48,0,0,1,.21-.06.32.32,0,0,1,.26.13.37.37,0,0,1,.12.27.39.39,0,0,1-.19.34,4.39,4.39,0,0,1-.73.35,2.77,2.77,0,0,1-.85.12A2.81,2.81,0,0,1,67.5,59.78Z"/><path class="h" d="M72,59.41a2.58,2.58,0,0,1-.66-1.88,3.27,3.27,0,0,1,.25-1.27,2.11,2.11,0,0,1,.79-.95,2.55,2.55,0,0,1,2.51,0,2.14,2.14,0,0,1,.78.88,2.65,2.65,0,0,1,.28,1.23.43.43,0,0,1-.12.31.44.44,0,0,1-.33.13H72.2a1.55,1.55,0,0,0,.51,1,1.75,1.75,0,0,0,1.16.36,3.49,3.49,0,0,0,.69-.07,3.28,3.28,0,0,0,.61-.23.29.29,0,0,1,.17,0,.41.41,0,0,1,.28.11.38.38,0,0,1,.12.28.42.42,0,0,1-.26.36,3.24,3.24,0,0,1-.77.32,3.41,3.41,0,0,1-.92.11A2.45,2.45,0,0,1,72,59.41Zm2.94-2.3A.11.11,0,0,0,75,57a1.4,1.4,0,0,0-.23-.65,1.45,1.45,0,0,0-.53-.46,1.47,1.47,0,0,0-.65-.15,1.55,1.55,0,0,0-.64.14,1.22,1.22,0,0,0-.54.49,1.5,1.5,0,0,0-.22.75Z"/><path class="h" d="M80.8,59.77a2.34,2.34,0,0,1-.87-.92,3.1,3.1,0,0,1,0-2.66,2.21,2.21,0,0,1,.88-.91,2.84,2.84,0,0,1,2.58,0,2.18,2.18,0,0,1,.87.91,2.76,2.76,0,0,1,.31,1.34,2.68,2.68,0,0,1-.31,1.32,2.17,2.17,0,0,1-.88.92,2.56,2.56,0,0,1-1.28.32A2.64,2.64,0,0,1,80.8,59.77Zm0-1.26a1.37,1.37,0,0,0,.56.56,1.63,1.63,0,0,0,.79.2,1.59,1.59,0,0,0,.76-.19,1.37,1.37,0,0,0,.6-.59,2,2,0,0,0,.22-1,1.91,1.91,0,0,0-.23-1,1.37,1.37,0,0,0-.57-.55,1.56,1.56,0,0,0-.78-.2,1.7,1.7,0,0,0-.76.18,1.4,1.4,0,0,0-.6.58,2.09,2.09,0,0,0-.22,1A1.91,1.91,0,0,0,80.75,58.51Z"/><path class="h" d="M86.22,59.91a.46.46,0,0,1-.13-.32V55.83h-.55a.37.37,0,0,1-.27-.11.37.37,0,0,1-.12-.27.38.38,0,0,1,.12-.28.37.37,0,0,1,.27-.11h.55v-.55a1.78,1.78,0,0,1,.22-.95,1.16,1.16,0,0,1,.52-.53,1.48,1.48,0,0,1,.72-.18,1.87,1.87,0,0,1,.83.19.4.4,0,0,1,.24.35.37.37,0,0,1-.12.26.34.34,0,0,1-.25.11l-.22,0-.26,0a.79.79,0,0,0-.6.2.91.91,0,0,0-.18.64v.52h1.19a.38.38,0,0,1,.39.39.4.4,0,0,1-.11.27.41.41,0,0,1-.28.11H87v3.76a.43.43,0,0,1-.14.32.46.46,0,0,1-.31.13A.46.46,0,0,1,86.22,59.91Z"/><path class="h" d="M93.1,62.12a.44.44,0,0,1-.12-.3,1,1,0,0,1,0-.16l.63-1.6-1.81-4.41a.45.45,0,0,1,0-.18.46.46,0,0,1,.13-.32.43.43,0,0,1,.31-.14.5.5,0,0,1,.26.08.45.45,0,0,1,.16.2l1.47,3.65,1.5-3.63A.44.44,0,0,1,96,55a.46.46,0,0,1,.44.46.45.45,0,0,1,0,.16l-2.63,6.31a.43.43,0,0,1-.41.31A.38.38,0,0,1,93.1,62.12Z"/><path class="h" d="M98.34,59.77a2.27,2.27,0,0,1-.87-.92,3,3,0,0,1,0-2.66,2.25,2.25,0,0,1,.87-.91,2.86,2.86,0,0,1,2.59,0,2.24,2.24,0,0,1,.87.91,2.76,2.76,0,0,1,.31,1.34,2.68,2.68,0,0,1-.31,1.32,2.17,2.17,0,0,1-.88.92,2.56,2.56,0,0,1-1.28.32A2.64,2.64,0,0,1,98.34,59.77Zm0-1.26a1.37,1.37,0,0,0,.56.56,1.64,1.64,0,0,0,1.55,0,1.3,1.3,0,0,0,.59-.59,1.93,1.93,0,0,0,.22-1,1.82,1.82,0,0,0-.23-1,1.41,1.41,0,0,0-.56-.55,1.59,1.59,0,0,0-.78-.2,1.67,1.67,0,0,0-.76.18,1.4,1.4,0,0,0-.6.58,2,2,0,0,0-.22,1A1.82,1.82,0,0,0,98.29,58.51Z"/><path class="h" d="M104.07,59.84a1.73,1.73,0,0,1-.59-.69,2.18,2.18,0,0,1-.22-1V55.46a.43.43,0,0,1,.14-.32.48.48,0,0,1,.32-.13.46.46,0,0,1,.31.13.42.42,0,0,1,.13.32v2.63q0,1.17,1,1.17A1.57,1.57,0,0,0,106,59a3.34,3.34,0,0,0,.74-.69V55.46a.42.42,0,0,1,.13-.32.48.48,0,0,1,.32-.13.44.44,0,0,1,.31.13.42.42,0,0,1,.13.32v4.12a.42.42,0,0,1-.13.32.41.41,0,0,1-.31.14.45.45,0,0,1-.32-.14.42.42,0,0,1-.13-.32v-.36a3.11,3.11,0,0,1-.82.64,2,2,0,0,1-1,.23A1.8,1.8,0,0,1,104.07,59.84Z"/><path class="h" d="M109.3,59.91a.46.46,0,0,1-.13-.32V55.47a.46.46,0,0,1,.13-.32.45.45,0,0,1,.32-.14.43.43,0,0,1,.31.14.43.43,0,0,1,.14.32v.38a1.87,1.87,0,0,1,1.5-.88h.05a.45.45,0,0,1,.31.12.47.47,0,0,1,.12.32.38.38,0,0,1-.13.3.44.44,0,0,1-.32.12h0a1.59,1.59,0,0,0-.83.22,1.91,1.91,0,0,0-.65.62v2.92a.43.43,0,0,1-.14.32.46.46,0,0,1-.31.13A.48.48,0,0,1,109.3,59.91Z"/><path class="h" d="M116.87,59.92a.55.55,0,0,1-.22-.3l-1.36-4a.5.5,0,0,1,0-.16.42.42,0,0,1,.13-.32.44.44,0,0,1,.31-.13.47.47,0,0,1,.26.08.3.3,0,0,1,.14.19l1.05,3.45c0,.05,0,.08.07.08s0,0,.07-.08l1-3.36a.44.44,0,0,1,.18-.26.5.5,0,0,1,.6,0,.44.44,0,0,1,.18.26l1,3.36c0,.05,0,.08.07.08s0,0,.06-.08l1.05-3.45a.36.36,0,0,1,.15-.19.47.47,0,0,1,.26-.08.46.46,0,0,1,.31.13.42.42,0,0,1,.13.32.5.5,0,0,1,0,.16l-1.37,4a.54.54,0,0,1-.21.3.57.57,0,0,1-.35.12.55.55,0,0,1-.35-.12.59.59,0,0,1-.23-.31l-.94-2.93s0-.08-.07-.08,0,0-.07.08l-.94,2.93a.65.65,0,0,1-.23.31.55.55,0,0,1-.35.12A.57.57,0,0,1,116.87,59.92Z"/><path class="h" d="M123.29,53.54a.51.51,0,0,1,.5-.5h.06a.47.47,0,0,1,.35.15.49.49,0,0,1,.15.35v0a.49.49,0,0,1-.15.35.47.47,0,0,1-.35.15h-.06a.51.51,0,0,1-.5-.5Zm.21,6.37a.42.42,0,0,1-.13-.32V55.47a.46.46,0,0,1,.44-.46.44.44,0,0,1,.46.46v4.12a.43.43,0,0,1-.14.32.46.46,0,0,1-.32.13A.46.46,0,0,1,123.5,59.91Z"/><path class="h" d="M125.6,59.65a.38.38,0,0,1-.16-.32.41.41,0,0,1,.11-.28.38.38,0,0,1,.28-.12.33.33,0,0,1,.17,0,3.66,3.66,0,0,0,.63.22,3.55,3.55,0,0,0,.68.07c.7,0,1.06-.23,1.06-.68a.35.35,0,0,0-.23-.32,4,4,0,0,0-.81-.26,6.82,6.82,0,0,1-.94-.28,1.57,1.57,0,0,1-.66-.46,1.16,1.16,0,0,1-.25-.76,1.39,1.39,0,0,1,.5-1.11,2.1,2.1,0,0,1,1.39-.42,3.86,3.86,0,0,1,1.39.24.34.34,0,0,1,.21.14.4.4,0,0,1,.08.23.39.39,0,0,1-.12.28.36.36,0,0,1-.27.12l-.13,0a3.66,3.66,0,0,0-1.1-.18,1.46,1.46,0,0,0-.8.19.55.55,0,0,0-.29.48.43.43,0,0,0,.26.41,5.21,5.21,0,0,0,.83.26,9.61,9.61,0,0,1,.93.28,1.42,1.42,0,0,1,.63.47,1.34,1.34,0,0,1-.26,1.81,2.1,2.1,0,0,1-1.36.41A3.69,3.69,0,0,1,125.6,59.65Z"/><path class="h" d="M131.3,59.78a2.24,2.24,0,0,1-.88-.9,2.75,2.75,0,0,1-.33-1.35,2.65,2.65,0,0,1,.34-1.37,2.28,2.28,0,0,1,.85-.89,2.32,2.32,0,0,1,1.15-.3,2.18,2.18,0,0,1,1.63.72V53.35a.42.42,0,0,1,.14-.32.44.44,0,0,1,.32-.13.42.42,0,0,1,.31.13.44.44,0,0,1,.13.32v6.24a.42.42,0,0,1-.13.32.46.46,0,0,1-.31.13.48.48,0,0,1-.32-.13.43.43,0,0,1-.14-.32v-.23a2.19,2.19,0,0,1-1.63.73A2.32,2.32,0,0,1,131.3,59.78Zm.1-1a1.48,1.48,0,0,0,1.15.46,1.93,1.93,0,0,0,.82-.19,2.51,2.51,0,0,0,.69-.52v-2a2.51,2.51,0,0,0-.69-.52,1.93,1.93,0,0,0-.82-.19,1.48,1.48,0,0,0-1.15.46,2.12,2.12,0,0,0,0,2.53Z"/><path class="h" d="M137.34,59.77a2.27,2.27,0,0,1-.87-.92,3,3,0,0,1,0-2.66,2.25,2.25,0,0,1,.87-.91,2.86,2.86,0,0,1,2.59,0,2.24,2.24,0,0,1,.87.91,2.76,2.76,0,0,1,.31,1.34,2.68,2.68,0,0,1-.31,1.32,2.17,2.17,0,0,1-.88.92,2.56,2.56,0,0,1-1.28.32A2.64,2.64,0,0,1,137.34,59.77Zm-.05-1.26a1.37,1.37,0,0,0,.56.56,1.64,1.64,0,0,0,1.55,0,1.3,1.3,0,0,0,.59-.59,1.93,1.93,0,0,0,.22-1,1.82,1.82,0,0,0-.23-1,1.35,1.35,0,0,0-.56-.55,1.56,1.56,0,0,0-.78-.2,1.67,1.67,0,0,0-.76.18,1.4,1.4,0,0,0-.6.58,2,2,0,0,0-.22,1A1.82,1.82,0,0,0,137.29,58.51Z"/><path class="h" d="M142.44,59.91a.46.46,0,0,1-.13-.32V55.47a.46.46,0,0,1,.13-.32.43.43,0,0,1,.32-.14.43.43,0,0,1,.31.14.43.43,0,0,1,.14.32v.35a2.37,2.37,0,0,1,.68-.63,1.84,1.84,0,0,1,.94-.22,1.55,1.55,0,0,1,.91.27,1.59,1.59,0,0,1,.57.71,1.93,1.93,0,0,1,1.77-1,1.45,1.45,0,0,1,.91.26,1.73,1.73,0,0,1,.53.69,2.26,2.26,0,0,1,.18.9v2.77a.43.43,0,0,1-.14.32.46.46,0,0,1-.32.13.46.46,0,0,1-.31-.13.42.42,0,0,1-.13-.32V57a1.45,1.45,0,0,0-.23-.93.92.92,0,0,0-.74-.28,1.25,1.25,0,0,0-.78.24,2.55,2.55,0,0,0-.6.68v2.88a.42.42,0,0,1-.13.32A.48.48,0,0,1,146,60a.44.44,0,0,1-.31-.13.42.42,0,0,1-.13-.32V57a1.51,1.51,0,0,0-.23-.93.93.93,0,0,0-.75-.28,1.24,1.24,0,0,0-.77.24,2.25,2.25,0,0,0-.6.68v2.88a.43.43,0,0,1-.14.32.46.46,0,0,1-.31.13A.46.46,0,0,1,142.44,59.91Z"/></svg>