<svg xmlns="http://www.w3.org/2000/svg" viewBox="0 0 150 150"><defs><style>.a{fill:#118b42;}</style></defs><path class="a" d="M120.6,66.55,103.31,57.4l-13-6.86a5.3,5.3,0,0,0-4.54,9.57L99.33,65.8l18,7.6a3.79,3.79,0,1,0,3.25-6.85Z"/><path class="a" d="M93.39,29.92a9.74,9.74,0,1,0,9.3-10.16A9.74,9.74,0,0,0,93.39,29.92Z"/><path class="a" d="M132.59,44a3.78,3.78,0,0,0-4.15-3.39L95,42.18c-9.24.66-14.36.49-20.69,8.14l-13,17.16L46,76.5,30.78,65.94a4.94,4.94,0,0,0-7.15,6.83S39.93,85.64,42,87.34s4.88,2.11,8.18.81,17.59-7.81,17.59-7.81L34.85,108.75a4.94,4.94,0,0,0,6.08,7.8S67.49,96.41,76.76,87.94c15.53-14.18,24-30.41,27.53-36.19l24.91-3.64A3.79,3.79,0,0,0,132.59,44Z"/><polygon class="a" points="60.81 130.29 5.7 130.29 5.7 125.67 56.19 125.67 56.19 112.47 144.3 112.47 144.3 117.09 60.81 117.09 60.81 130.29"/></svg>