<svg xmlns="http://www.w3.org/2000/svg" viewBox="0 0 150 150"><defs><style>.a{fill:#118b42;}</style></defs><path class="a" d="M75.16,31a9.74,9.74,0,1,0,9.68-9.8A9.74,9.74,0,0,0,75.16,31Z"/><path class="a" d="M123,53.29l-18.35-2.81L121.5,27.14a3.79,3.79,0,0,0-4.77-5.9L88.35,47.09l-27,15.69-17.22,4.7L32.22,53.33a4.94,4.94,0,0,0-8.67,4.73S35.93,74.73,37.44,76.9s4.16,3.31,7.69,2.91,19-3,19-3L25,95.72a4.94,4.94,0,1,0,3.84,9.11s30.88-12.53,42-18.29A61.94,61.94,0,0,0,98.06,59.85l23.7.92A3.79,3.79,0,0,0,123,53.29Z"/><polygon class="a" points="60.81 129.6 5.7 129.6 5.7 124.98 56.19 124.98 56.19 111.78 144.3 111.78 144.3 116.4 60.81 116.4 60.81 129.6"/></svg>