<svg xmlns="http://www.w3.org/2000/svg" viewBox="0 0 150 150"><defs><style>.a{fill:#118b42;}</style></defs><circle class="a" cx="92.02" cy="14.86" r="9.74" transform="translate(56.33 100.96) rotate(-76.66)"/><path class="a" d="M98.64,60.94l18,6.48a3.79,3.79,0,0,0,2.87-7L103.49,53S93.08,32.37,92.62,31.68c-3.09-4.53-11.46-7.2-19.82-2.79L53.89,40.2a9.11,9.11,0,0,0-4.75,5.73L43.83,64.19A3.79,3.79,0,1,0,51,66.62l7.17-17.68,9.94-4.18C61.79,67.79,48,118.83,48,118.83a4.94,4.94,0,1,0,9.4,3l16.65-40L85.73,97l4.82,23.26a4.94,4.94,0,0,0,9.76-1.57L97.43,94.08a6.84,6.84,0,0,0-1-3.36l-10-19.81,5.53-18,4,5.74,0,0A4.7,4.7,0,0,0,98.64,60.94Z"/><polygon class="a" points="44.46 128.17 27.49 144.82 9.88 144.82 33.11 128.17 44.46 128.17"/><polygon class="a" points="68.55 128.16 64.89 144.84 47.22 144.84 57.18 128.16 68.55 128.16"/><polygon class="a" points="92.69 128.15 102.43 144.86 84.7 144.85 81.29 128.16 92.69 128.15"/><polygon class="a" points="116.89 128.14 140.12 144.88 122.32 144.87 105.47 128.15 116.89 128.14"/></svg>