<?xml version="1.0" standalone="no"?>
<!DOCTYPE svg PUBLIC "-//W3C//DTD SVG 20010904//EN"
 "http://www.w3.org/TR/2001/REC-SVG-20010904/DTD/svg10.dtd">
<svg version="1.0" xmlns="http://www.w3.org/2000/svg"
 width="500.000000pt" height="500.000000pt" viewBox="0 0 500.000000 500.000000"
 preserveAspectRatio="xMidYMid meet">
<metadata>
Created by potrace 1.14, written by Peter Selinger 2001-2017
</metadata>
<g transform="translate(0.000000,500.000000) scale(0.100000,-0.100000)"
fill="#000000" stroke="none">
<path d="M2936 4559 c-119 -29 -216 -155 -216 -279 0 -173 133 -305 304 -301
28 0 66 6 85 12 60 19 134 81 166 140 27 48 30 63 30 139 0 98 -21 152 -81
213 -70 70 -189 101 -288 76z"/>
<path d="M2585 3905 c-73 -16 -122 -36 -195 -80 -30 -19 -163 -98 -295 -177
-303 -182 -306 -184 -337 -227 -21 -30 -94 -242 -113 -329 -2 -9 -24 -85 -49
-169 -25 -84 -46 -168 -46 -188 0 -43 51 -103 90 -106 100 -6 109 6 234 321
59 146 110 271 114 278 4 7 66 38 137 68 176 73 166 71 156 37 -5 -15 -21 -73
-36 -128 -14 -55 -44 -163 -65 -240 -52 -189 -136 -497 -154 -565 -8 -30 -38
-140 -66 -245 -29 -104 -53 -194 -55 -200 -1 -5 -7 -30 -14 -55 -11 -39 -38
-139 -162 -595 -63 -233 -65 -252 -29 -310 24 -39 64 -64 107 -66 111 -6 125
11 247 307 55 131 107 257 117 279 9 22 40 96 69 165 28 69 58 139 65 155 8
17 46 109 85 205 40 96 75 179 80 183 7 8 321 -387 347 -436 9 -17 44 -173 79
-352 2 -11 10 -51 18 -90 9 -38 17 -81 20 -95 2 -14 14 -68 25 -120 12 -52 21
-95 21 -95 0 -1 10 -13 23 -27 67 -76 179 -73 238 6 26 34 31 103 15 221 -8
61 -10 77 -21 175 -4 30 -8 71 -11 90 -2 19 -6 58 -9 85 -5 55 -16 141 -20
165 -2 8 -6 49 -9 90 -6 72 -13 87 -172 404 l-166 329 12 41 c10 36 69 228
117 381 8 28 17 58 18 67 2 10 8 25 13 34 10 18 10 18 96 -109 25 -38 56 -77
68 -86 29 -23 581 -222 628 -227 65 -8 125 50 121 116 -3 64 -19 79 -148 141
-68 32 -126 59 -128 59 -3 0 -212 97 -261 121 -13 7 -78 123 -180 325 -87 173
-174 333 -192 355 -86 101 -265 149 -427 114z"/>
<path d="M1961 840 c-4 -3 -60 -95 -125 -205 -65 -110 -126 -211 -135 -225
-17 -28 -41 -71 -41 -75 0 -2 120 -3 266 -3 196 0 267 3 270 12 5 14 72 316
80 361 3 17 11 54 19 83 12 47 12 52 -3 53 -80 4 -325 3 -331 -1z"/>
<path d="M2699 839 c-5 -3 7 -81 26 -175 19 -93 36 -178 38 -189 2 -11 10 -48
17 -82 l12 -62 269 1 c148 1 269 3 269 4 0 6 -42 78 -60 104 -9 14 -19 30 -21
35 -4 10 -74 133 -108 190 -10 17 -27 46 -38 65 -51 89 -66 110 -76 111 -54 4
-321 3 -328 -2z"/>
<path d="M3438 839 c-5 -3 104 -119 244 -257 l253 -251 268 1 c147 0 267 2
267 4 0 1 -152 112 -337 245 -186 133 -344 247 -351 252 -13 11 -327 16 -344
6z"/>
<path d="M1200 820 c-34 -25 -580 -416 -604 -432 -10 -7 -30 -22 -43 -33 l-24
-20 267 0 267 0 256 252 256 252 -175 0 c-155 0 -178 -2 -200 -19z"/>
</g>
</svg>
