<svg width="200" height="200" xmlns="http://www.w3.org/2000/svg">

 <rect x="0" y="0" width="200" height="200"  fill="white" />
        <g stroke="#f21fb0cc" stroke-width="3" fill ="none">
        <rect x="2" y="2" width="195" height="195"  />
        <rect x="2" y="2" width="175" height="175"  />
        <rect x="2" y="2" width="155" height="155"  />
        <rect x="2" y="2" width="135" height="135"  />
        <rect x="2" y="2" width="115" height="115"  />
        <rect x="2" y="2" width="95" height="95"  />
        <rect x="2" y="2" width="75" height="75"  />
        <rect x="2" y="2" width="55" height="55"  />
        <rect x="2" y="2" width="35" height="35"  />
         <rect x="2" y="2" width="15" height="15"  />
        </g>

    <g stroke="#ffffffff" stroke-width="2" fill="none" >
 <circle cx="200" cy="200" r="195" />
  <circle cx="200" cy="200" r="175" />
   <circle cx="200" cy="200" r="155" />
    <circle cx="200" cy="200" r="135" />
     <circle cx="200" cy="200" r="115" />

      <circle cx="200" cy="200" r="95" />
       <circle cx="200" cy="200" r="75" />
        <circle cx="200" cy="200" r="55" />
         <circle cx="200" cy="200" r="35" />
         <circle cx="200" cy="200" r="15" />

</g>


        <g  stroke="#502378ff" stroke-width="18" fill ="none">
        <rect x="2" y="2" width="185" height="185"  />
        <rect x="2" y="2" width="165" height="165"  />
        <rect x="2" y="2" width="145" height="145"  />
        <rect x="2" y="2" width="125" height="125"  />
        <rect x="2" y="2" width="105" height="105"  />
        <rect x="2" y="2" width="85" height="85"  />
        <rect x="2" y="2" width="65" height="65"  />
        <rect x="2" y="2" width="45" height="45"  />
        <rect x="2" y="2" width="25" height="25"  />
         <rect x="2" y="2" width="5" height="5"  />
        </g>

<rect x="2" y="2" width="200" height="200" stroke="white" stroke-width="3" fill="none"  />
    <g stroke="#ffffff66" stroke-width="2" fill="none" >
 <circle cx="200" cy="200" r="195" />
  <circle cx="200" cy="200" r="175" />
   <circle cx="200" cy="200" r="155" />
    <circle cx="200" cy="200" r="135" />
     <circle cx="200" cy="200" r="115" />

      <circle cx="200" cy="200" r="95" />
       <circle cx="200" cy="200" r="75" />
        <circle cx="200" cy="200" r="55" />
         <circle cx="200" cy="200" r="35" />
         <circle cx="200" cy="200" r="15" />

</g>

        </svg>